<svg width="69" height="68" viewBox="0 0 69 68" fill="none" xmlns="http://www.w3.org/2000/svg">
<path d="M29.5007 47.3337C21.1673 49.8337 21.1673 43.1671 17.834 42.3337M41.1673 52.3337V45.8837C41.2298 45.089 41.1225 44.2901 40.8523 43.54C40.5822 42.79 40.1555 42.1061 39.6007 41.5337C44.834 40.9504 50.334 38.9671 50.334 29.8671C50.3336 27.5401 49.4385 25.3024 47.834 23.6171C48.5937 21.5812 48.54 19.331 47.684 17.3337C47.684 17.3337 45.7173 16.7504 41.1673 19.8004C37.3473 18.7651 33.3206 18.7651 29.5007 19.8004C24.9507 16.7504 22.984 17.3337 22.984 17.3337C22.1279 19.331 22.0742 21.5812 22.834 23.6171C21.2175 25.3149 20.3215 27.5728 20.334 29.9171C20.334 38.9504 25.834 40.9337 31.0673 41.5837C30.519 42.1503 30.0961 42.8261 29.8262 43.5669C29.5562 44.3078 29.4453 45.0972 29.5007 45.8837V52.3337" stroke="white" stroke-width="2" stroke-linecap="round" stroke-linejoin="round"/>
</svg>
