<svg width="69" height="68" viewBox="0 0 69 68" fill="none" xmlns="http://www.w3.org/2000/svg">
<path d="M21.5 42C31.5 47 37.5 47 47.5 42" stroke="white" stroke-width="2" stroke-linecap="round" stroke-linejoin="round"/>
<path d="M41.5 45L43.5 49C43.5 49 51.842 46.344 54.5 42C54.5 40 55.56 25.706 48.5 21C45.5 19 40.5 18 40.5 18L38.5 22H34.5" stroke="white" stroke-width="2" stroke-linecap="round" stroke-linejoin="round"/>
<path d="M27.5565 45L25.5565 49C25.5565 49 17.2145 46.344 14.5565 42C14.5565 40 13.4965 25.706 20.5565 21C23.5565 19 28.5565 18 28.5565 18L30.5565 22H34.5565" stroke="white" stroke-width="2" stroke-linecap="round" stroke-linejoin="round"/>
<path d="M27.5 38C25.844 38 24.5 36.21 24.5 34C24.5 31.79 25.844 30 27.5 30C29.156 30 30.5 31.79 30.5 34C30.5 36.21 29.156 38 27.5 38ZM41.5 38C39.844 38 38.5 36.21 38.5 34C38.5 31.79 39.844 30 41.5 30C43.156 30 44.5 31.79 44.5 34C44.5 36.21 43.156 38 41.5 38Z" stroke="white" stroke-width="2" stroke-linecap="round" stroke-linejoin="round"/>
</svg>
