<svg width="69" height="68" viewBox="0 0 69 68" fill="none" xmlns="http://www.w3.org/2000/svg">
<mask id="path-1-inside-1_471_1070" fill="white">
<path fill-rule="evenodd" clip-rule="evenodd" d="M35.9118 33.7059C35.9118 40.7231 30.2231 46.4118 23.2059 46.4118C16.1886 46.4118 10.5 40.7231 10.5 33.7059C10.5 26.6886 16.1886 21 23.2059 21C30.2231 21 35.9118 26.6886 35.9118 33.7059ZM51.4419 33.7059C51.4419 40.7231 48.2815 46.4118 44.383 46.4118C40.4846 46.4118 37.3242 40.7231 37.3242 33.7059C37.3242 26.6886 40.4846 21 44.383 21C48.2815 21 51.4419 26.6886 51.4419 33.7059ZM55.677 46.4118C57.2364 46.4118 58.5006 40.7231 58.5006 33.7059C58.5006 26.6886 57.2364 21 55.677 21C54.1177 21 52.8535 26.6886 52.8535 33.7059C52.8535 40.7231 54.1177 46.4118 55.677 46.4118Z"/>
</mask>
<path d="M23.2059 48.4118C31.3277 48.4118 37.9118 41.8277 37.9118 33.7059H33.9118C33.9118 39.6186 29.1186 44.4118 23.2059 44.4118V48.4118ZM8.5 33.7059C8.5 41.8277 15.084 48.4118 23.2059 48.4118V44.4118C17.2932 44.4118 12.5 39.6186 12.5 33.7059H8.5ZM23.2059 19C15.084 19 8.5 25.584 8.5 33.7059H12.5C12.5 27.7932 17.2932 23 23.2059 23V19ZM37.9118 33.7059C37.9118 25.584 31.3277 19 23.2059 19V23C29.1186 23 33.9118 27.7932 33.9118 33.7059H37.9118ZM44.383 48.4118C47.3884 48.4118 49.6888 46.2426 51.1227 43.6616C52.5943 41.0128 53.4419 37.489 53.4419 33.7059H49.4419C49.4419 36.9401 48.7093 39.7692 47.6261 41.719C46.5052 43.7366 45.2761 44.4118 44.383 44.4118V48.4118ZM35.3242 33.7059C35.3242 37.489 36.1718 41.0128 37.6434 43.6616C39.0773 46.2426 41.3777 48.4118 44.383 48.4118V44.4118C43.4899 44.4118 42.2609 43.7366 41.14 41.719C40.0568 39.7692 39.3242 36.9401 39.3242 33.7059H35.3242ZM44.383 19C41.3777 19 39.0773 21.1691 37.6434 23.7502C36.1718 26.399 35.3242 29.9228 35.3242 33.7059H39.3242C39.3242 30.4717 40.0568 27.6426 41.14 25.6928C42.2609 23.6752 43.4899 23 44.383 23V19ZM53.4419 33.7059C53.4419 29.9228 52.5943 26.399 51.1227 23.7502C49.6888 21.1691 47.3884 19 44.383 19V23C45.2761 23 46.5052 23.6752 47.6261 25.6928C48.7093 27.6426 49.4419 30.4717 49.4419 33.7059H53.4419ZM56.5006 33.7059C56.5006 37.1135 56.1921 40.1376 55.7212 42.2564C55.4822 43.3321 55.2245 44.0664 55.0056 44.4831C54.895 44.6935 54.8443 44.7257 54.8913 44.6824C54.9491 44.6292 55.2199 44.4118 55.677 44.4118V48.4118C56.524 48.4118 57.1755 48.0166 57.6009 47.6249C58.0155 47.243 58.3193 46.776 58.5466 46.3435C59.0033 45.4742 59.354 44.3478 59.626 43.1242C60.177 40.6444 60.5006 37.3156 60.5006 33.7059H56.5006ZM55.677 23C55.2199 23 54.9491 22.7826 54.8913 22.7294C54.8443 22.6861 54.895 22.7183 55.0056 22.9287C55.2245 23.3454 55.4822 24.0797 55.7212 25.1553C56.1921 27.2742 56.5006 30.2983 56.5006 33.7059H60.5006C60.5006 30.0962 60.177 26.7674 59.626 24.2876C59.354 23.064 59.0033 21.9375 58.5466 21.0683C58.3193 20.6357 58.0155 20.1687 57.6009 19.7869C57.1755 19.3952 56.524 19 55.677 19V23ZM54.8535 33.7059C54.8535 30.2983 55.162 27.2742 55.6329 25.1553C55.8719 24.0797 56.1296 23.3454 56.3485 22.9287C56.459 22.7183 56.5098 22.6861 56.4628 22.7294C56.405 22.7826 56.1341 23 55.677 23V19C54.8301 19 54.1786 19.3952 53.7532 19.7869C53.3386 20.1687 53.0348 20.6357 52.8075 21.0683C52.3508 21.9375 52.0001 23.064 51.7281 24.2876C51.1771 26.7674 50.8535 30.0962 50.8535 33.7059H54.8535ZM55.677 44.4118C56.1341 44.4118 56.405 44.6292 56.4628 44.6824C56.5098 44.7257 56.459 44.6935 56.3485 44.4831C56.1296 44.0664 55.8719 43.3321 55.6329 42.2564C55.162 40.1376 54.8535 37.1135 54.8535 33.7059H50.8535C50.8535 37.3156 51.1771 40.6444 51.7281 43.1242C52.0001 44.3478 52.3508 45.4742 52.8075 46.3435C53.0348 46.776 53.3386 47.243 53.7532 47.6249C54.1786 48.0166 54.8301 48.4118 55.677 48.4118V44.4118Z" fill="white" mask="url(#path-1-inside-1_471_1070)"/>
</svg>
