<svg width="69" height="68" viewBox="0 0 69 68" fill="none" xmlns="http://www.w3.org/2000/svg">
<path d="M54.0269 20.6672C52.2979 21.7929 50.3835 22.654 48.3575 23.2172C47.2701 22.063 45.8249 21.245 44.2174 20.8737C42.6099 20.5024 40.9177 20.5958 39.3696 21.1412C37.8214 21.6867 36.4922 22.6578 35.5615 23.9233C34.6308 25.1889 34.1436 26.6877 34.1658 28.2172V29.8838C30.9928 29.9598 27.8487 29.3102 25.0135 27.9929C22.1783 26.6756 19.74 24.7315 17.9158 22.3338C17.9158 22.3338 10.6936 37.3338 26.9436 44.0005C23.2251 46.3304 18.7954 47.4987 14.3047 47.3338C30.5547 55.6671 50.4158 47.3338 50.4158 28.1671C50.4141 27.7029 50.3658 27.2398 50.2714 26.7838C52.1141 25.1063 53.4145 22.9883 54.0269 20.6672Z" stroke="white" stroke-width="2" stroke-linecap="round" stroke-linejoin="round"/>
</svg>
