<svg width="1290" height="510" viewBox="0 0 1290 510" fill="none" xmlns="http://www.w3.org/2000/svg">
<mask id="path-1-inside-1_462_303" fill="white">
<path d="M0.5 0H1289.5V310H0.5V0Z"/>
</mask>
<path d="M0.5 1H1289.5V-1H0.5V1ZM1289.5 309H0.5V311H1289.5V309Z" fill="white" mask="url(#path-1-inside-1_462_303)"/>
<mask id="path-3-outside-2_462_303" maskUnits="userSpaceOnUse" x="7" y="173" width="85" height="73" fill="black">
<rect fill="white" x="7" y="173" width="85" height="73"/>
<path d="M90.918 209.99C90.918 214.84 90.1367 219.398 88.5742 223.662C87.0443 227.926 84.8633 231.637 82.0312 234.795C79.1992 237.952 75.7975 240.443 71.8262 242.266C67.8874 244.089 63.5091 245 58.6914 245H23.3887V234.99H58.6914C62.1419 234.99 65.2344 234.339 67.9688 233.037C70.7357 231.735 73.0632 229.961 74.9512 227.715C76.8717 225.436 78.3366 222.783 79.3457 219.756C80.3874 216.696 80.9082 213.441 80.9082 209.99C80.9082 206.54 80.3874 203.301 79.3457 200.273C78.3366 197.246 76.8717 194.609 74.9512 192.363C73.0632 190.085 70.7357 188.294 67.9688 186.992C65.2344 185.658 62.1419 184.99 58.6914 184.99H18.4082V245H8.39844V174.98H58.6914C63.5091 174.98 67.8874 175.908 71.8262 177.764C75.7975 179.587 79.1992 182.093 82.0312 185.283C84.8633 188.441 87.0443 192.152 88.5742 196.416C90.1367 200.648 90.918 205.173 90.918 209.99Z"/>
</mask>
<path d="M90.918 209.99C90.918 214.84 90.1367 219.398 88.5742 223.662C87.0443 227.926 84.8633 231.637 82.0312 234.795C79.1992 237.952 75.7975 240.443 71.8262 242.266C67.8874 244.089 63.5091 245 58.6914 245H23.3887V234.99H58.6914C62.1419 234.99 65.2344 234.339 67.9688 233.037C70.7357 231.735 73.0632 229.961 74.9512 227.715C76.8717 225.436 78.3366 222.783 79.3457 219.756C80.3874 216.696 80.9082 213.441 80.9082 209.99C80.9082 206.54 80.3874 203.301 79.3457 200.273C78.3366 197.246 76.8717 194.609 74.9512 192.363C73.0632 190.085 70.7357 188.294 67.9688 186.992C65.2344 185.658 62.1419 184.99 58.6914 184.99H18.4082V245H8.39844V174.98H58.6914C63.5091 174.98 67.8874 175.908 71.8262 177.764C75.7975 179.587 79.1992 182.093 82.0312 185.283C84.8633 188.441 87.0443 192.152 88.5742 196.416C90.1367 200.648 90.918 205.173 90.918 209.99Z" fill="#36E6F1" fill-opacity="0.2"/>
<path d="M88.5742 223.662L87.6352 223.318L87.633 223.324L88.5742 223.662ZM71.8262 242.266L71.409 241.357L71.4062 241.358L71.8262 242.266ZM23.3887 245H22.3887V246H23.3887V245ZM23.3887 234.99V233.99H22.3887V234.99H23.3887ZM67.9688 233.037L67.5429 232.132L67.5388 232.134L67.9688 233.037ZM74.9512 227.715L74.1865 227.07L74.1857 227.071L74.9512 227.715ZM79.3457 219.756L78.399 219.434L78.397 219.44L79.3457 219.756ZM79.3457 200.273L78.397 200.59L78.4001 200.599L79.3457 200.273ZM74.9512 192.363L74.1812 193.001L74.1861 193.007L74.1911 193.013L74.9512 192.363ZM67.9688 186.992L67.5301 187.891L67.5365 187.894L67.543 187.897L67.9688 186.992ZM18.4082 184.99V183.99H17.4082V184.99H18.4082ZM18.4082 245V246H19.4082V245H18.4082ZM8.39844 245H7.39844V246H8.39844V245ZM8.39844 174.98V173.98H7.39844V174.98H8.39844ZM71.8262 177.764L71.4 178.668L71.409 178.673L71.8262 177.764ZM82.0312 185.283L81.2834 185.947L81.2868 185.951L82.0312 185.283ZM88.5742 196.416L87.6329 196.754L87.6361 196.762L88.5742 196.416ZM89.918 209.99C89.918 214.731 89.1547 219.171 87.6353 223.318L89.5132 224.006C91.1187 219.624 91.918 214.95 91.918 209.99H89.918ZM87.633 223.324C86.1437 227.475 84.0268 231.072 81.2868 234.127L82.7757 235.463C85.6998 232.202 87.9449 228.377 89.5155 224L87.633 223.324ZM81.2868 234.127C78.549 237.18 75.2598 239.589 71.409 241.357L72.2433 243.174C76.3353 241.296 79.8494 238.725 82.7757 235.463L81.2868 234.127ZM71.4062 241.358C67.6129 243.114 63.3801 244 58.6914 244V246C63.6381 246 68.1619 245.063 72.2462 243.173L71.4062 241.358ZM58.6914 244H23.3887V246H58.6914V244ZM24.3887 245V234.99H22.3887V245H24.3887ZM23.3887 235.99H58.6914V233.99H23.3887V235.99ZM58.6914 235.99C62.2699 235.99 65.5124 235.314 68.3987 233.94L67.5388 232.134C64.9563 233.364 62.0139 233.99 58.6914 233.99V235.99ZM68.3945 233.942C71.2866 232.581 73.7317 230.72 75.7167 228.358L74.1857 227.071C72.3946 229.202 70.1847 230.889 67.543 232.132L68.3945 233.942ZM75.7158 228.359C77.7236 225.977 79.2481 223.211 80.2944 220.072L78.397 219.44C77.4251 222.355 76.0199 224.895 74.1865 227.07L75.7158 228.359ZM80.2924 220.078C81.3717 216.908 81.9082 213.543 81.9082 209.99H79.9082C79.9082 213.339 79.4031 216.484 78.3991 219.434L80.2924 220.078ZM81.9082 209.99C81.9082 206.438 81.3717 203.088 80.2913 199.948L78.4001 200.599C79.4031 203.514 79.9082 206.642 79.9082 209.99H81.9082ZM80.2944 199.957C79.2478 196.817 77.7221 194.065 75.7112 191.713L74.1911 193.013C76.0214 195.154 77.4254 197.675 78.397 200.59L80.2944 199.957ZM75.7212 191.725C73.7363 189.33 71.2899 187.45 68.3945 186.087L67.543 187.897C70.1815 189.139 72.39 190.84 74.1812 193.001L75.7212 191.725ZM68.4074 186.094C65.5191 184.684 62.2735 183.99 58.6914 183.99V185.99C62.0104 185.99 64.9496 186.631 67.5301 187.891L68.4074 186.094ZM58.6914 183.99H18.4082V185.99H58.6914V183.99ZM17.4082 184.99V245H19.4082V184.99H17.4082ZM18.4082 244H8.39844V246H18.4082V244ZM9.39844 245V174.98H7.39844V245H9.39844ZM8.39844 175.98H58.6914V173.98H8.39844V175.98ZM58.6914 175.98C63.3776 175.98 67.6081 176.882 71.4 178.668L72.2523 176.859C68.1666 174.934 63.6406 173.98 58.6914 173.98V175.98ZM71.409 178.673C75.2575 180.439 78.5457 182.863 81.2834 185.947L82.7791 184.619C79.8527 181.323 76.3375 178.734 72.2433 176.855L71.409 178.673ZM81.2868 185.951C84.0268 189.006 86.1437 192.603 87.633 196.754L89.5155 196.078C87.9449 191.701 85.6998 187.876 82.7757 184.616L81.2868 185.951ZM87.6361 196.762C89.155 200.876 89.918 205.283 89.918 209.99H91.918C91.918 205.062 91.1185 200.42 89.5123 196.07L87.6361 196.762Z" fill="#36E6F1" mask="url(#path-3-outside-2_462_303)"/>
<mask id="path-5-outside-3_462_303" maskUnits="userSpaceOnUse" x="843" y="173" width="90" height="73" fill="black">
<rect fill="white" x="843" y="173" width="90" height="73"/>
<path d="M931.992 209.99C931.992 214.84 931.227 219.398 929.697 223.662C928.167 227.926 925.986 231.637 923.154 234.795C920.355 237.952 916.986 240.443 913.047 242.266C909.108 244.089 904.73 245 899.912 245H876.621C871.771 245 867.36 244.089 863.389 242.266C859.417 240.443 856.016 237.952 853.184 234.795C850.384 231.637 848.219 227.926 846.689 223.662C845.16 219.398 844.395 214.84 844.395 209.99C844.395 205.173 845.16 200.648 846.689 196.416C848.219 192.152 850.384 188.441 853.184 185.283C856.016 182.093 859.417 179.587 863.389 177.764C867.36 175.908 871.771 174.98 876.621 174.98H899.912C904.73 174.98 909.108 175.908 913.047 177.764C916.986 179.587 920.355 182.093 923.154 185.283C925.986 188.441 928.167 192.152 929.697 196.416C931.227 200.648 931.992 205.173 931.992 209.99ZM921.982 209.99C921.982 206.54 921.478 203.301 920.469 200.273C919.46 197.246 917.995 194.609 916.074 192.363C914.186 190.085 911.875 188.294 909.141 186.992C906.439 185.658 903.363 184.99 899.912 184.99H876.621C873.171 184.99 870.062 185.658 867.295 186.992C864.561 188.294 862.233 190.085 860.312 192.363C858.424 194.609 856.96 197.246 855.918 200.273C854.909 203.301 854.404 206.54 854.404 209.99C854.404 213.441 854.909 216.696 855.918 219.756C856.96 222.783 858.424 225.436 860.312 227.715C862.233 229.961 864.561 231.735 867.295 233.037C870.062 234.339 873.171 234.99 876.621 234.99H899.912C903.363 234.99 906.439 234.339 909.141 233.037C911.875 231.735 914.186 229.961 916.074 227.715C917.995 225.436 919.46 222.783 920.469 219.756C921.478 216.696 921.982 213.441 921.982 209.99Z"/>
</mask>
<path d="M931.992 209.99C931.992 214.84 931.227 219.398 929.697 223.662C928.167 227.926 925.986 231.637 923.154 234.795C920.355 237.952 916.986 240.443 913.047 242.266C909.108 244.089 904.73 245 899.912 245H876.621C871.771 245 867.36 244.089 863.389 242.266C859.417 240.443 856.016 237.952 853.184 234.795C850.384 231.637 848.219 227.926 846.689 223.662C845.16 219.398 844.395 214.84 844.395 209.99C844.395 205.173 845.16 200.648 846.689 196.416C848.219 192.152 850.384 188.441 853.184 185.283C856.016 182.093 859.417 179.587 863.389 177.764C867.36 175.908 871.771 174.98 876.621 174.98H899.912C904.73 174.98 909.108 175.908 913.047 177.764C916.986 179.587 920.355 182.093 923.154 185.283C925.986 188.441 928.167 192.152 929.697 196.416C931.227 200.648 931.992 205.173 931.992 209.99ZM921.982 209.99C921.982 206.54 921.478 203.301 920.469 200.273C919.46 197.246 917.995 194.609 916.074 192.363C914.186 190.085 911.875 188.294 909.141 186.992C906.439 185.658 903.363 184.99 899.912 184.99H876.621C873.171 184.99 870.062 185.658 867.295 186.992C864.561 188.294 862.233 190.085 860.312 192.363C858.424 194.609 856.96 197.246 855.918 200.273C854.909 203.301 854.404 206.54 854.404 209.99C854.404 213.441 854.909 216.696 855.918 219.756C856.96 222.783 858.424 225.436 860.312 227.715C862.233 229.961 864.561 231.735 867.295 233.037C870.062 234.339 873.171 234.99 876.621 234.99H899.912C903.363 234.99 906.439 234.339 909.141 233.037C911.875 231.735 914.186 229.961 916.074 227.715C917.995 225.436 919.46 222.783 920.469 219.756C921.478 216.696 921.982 213.441 921.982 209.99Z" fill="#36E6F1" fill-opacity="0.2"/>
<path d="M923.154 234.795L922.41 234.127L922.406 234.132L923.154 234.795ZM913.047 242.266L912.627 241.358L913.047 242.266ZM863.389 242.266L862.972 243.174L863.389 242.266ZM853.184 234.795L852.435 235.458L852.439 235.463L853.184 234.795ZM846.689 223.662L845.748 224L846.689 223.662ZM846.689 196.416L847.63 196.756L847.631 196.754L846.689 196.416ZM853.184 185.283L852.436 184.619L852.435 184.62L853.184 185.283ZM863.389 177.764L863.806 178.673L863.812 178.67L863.389 177.764ZM913.047 177.764L912.621 178.668L912.627 178.671L913.047 177.764ZM923.154 185.283L922.403 185.943L922.41 185.951L923.154 185.283ZM929.697 196.416L928.756 196.754L928.757 196.756L929.697 196.416ZM916.074 192.363L915.304 193.001L915.309 193.007L915.314 193.013L916.074 192.363ZM909.141 186.992L908.698 187.889L908.704 187.892L908.711 187.895L909.141 186.992ZM867.295 186.992L867.725 187.895L867.729 187.893L867.295 186.992ZM860.312 192.363L859.548 191.719L859.547 191.72L860.312 192.363ZM855.918 200.273L854.972 199.948L854.969 199.957L855.918 200.273ZM855.918 219.756L854.968 220.069L854.972 220.081L855.918 219.756ZM860.312 227.715L859.542 228.353L859.547 228.359L859.552 228.365L860.312 227.715ZM867.295 233.037L866.865 233.94L866.869 233.942L867.295 233.037ZM909.141 233.037L908.711 232.134L908.706 232.136L909.141 233.037ZM916.074 227.715L915.31 227.07L915.309 227.071L916.074 227.715ZM920.469 219.756L921.417 220.072L921.418 220.069L920.469 219.756ZM930.992 209.99C930.992 214.734 930.244 219.176 928.756 223.324L930.639 224C932.21 219.62 932.992 214.947 932.992 209.99H930.992ZM928.756 223.324C927.267 227.475 925.15 231.072 922.41 234.127L923.899 235.463C926.823 232.202 929.068 228.377 930.639 224L928.756 223.324ZM922.406 234.132C919.701 237.183 916.444 239.591 912.627 241.358L913.467 243.173C917.527 241.294 921.009 238.722 923.903 235.458L922.406 234.132ZM912.627 241.358C908.834 243.114 904.601 244 899.912 244V246C904.859 246 909.383 245.063 913.467 243.173L912.627 241.358ZM899.912 244H876.621V246H899.912V244ZM876.621 244C871.899 244 867.633 243.113 863.806 241.357L862.972 243.174C867.087 245.064 871.643 246 876.621 246V244ZM863.806 241.357C859.955 239.589 856.666 237.18 853.928 234.127L852.439 235.463C855.365 238.725 858.88 241.296 862.972 243.174L863.806 241.357ZM853.932 234.132C851.223 231.076 849.121 227.478 847.631 223.324L845.748 224C847.318 228.375 849.545 232.199 852.435 235.458L853.932 234.132ZM847.631 223.324C846.142 219.176 845.395 214.734 845.395 209.99H843.395C843.395 214.947 844.177 219.62 845.748 224L847.631 223.324ZM845.395 209.99C845.395 205.28 846.142 200.871 847.63 196.756L845.749 196.076C844.177 200.424 843.395 205.065 843.395 209.99H845.395ZM847.631 196.754C849.121 192.6 851.223 189.002 853.932 185.947L852.435 184.62C849.545 187.879 847.318 191.703 845.748 196.078L847.631 196.754ZM853.931 185.947C856.669 182.863 859.957 180.439 863.806 178.673L862.972 176.855C858.877 178.734 855.362 181.323 852.436 184.619L853.931 185.947ZM863.812 178.67C867.637 176.882 871.901 175.98 876.621 175.98V173.98C871.64 173.98 867.083 174.934 862.965 176.858L863.812 178.67ZM876.621 175.98H899.912V173.98H876.621V175.98ZM899.912 175.98C904.598 175.98 908.829 176.882 912.621 178.668L913.473 176.859C909.387 174.934 904.861 173.98 899.912 173.98V175.98ZM912.627 178.671C916.442 180.437 919.697 182.86 922.403 185.943L923.906 184.624C921.012 181.326 917.529 178.736 913.467 176.856L912.627 178.671ZM922.41 185.951C925.15 189.006 927.267 192.603 928.756 196.754L930.639 196.078C929.068 191.701 926.823 187.876 923.899 184.616L922.41 185.951ZM928.757 196.756C930.245 200.871 930.992 205.28 930.992 209.99H932.992C932.992 205.065 932.21 200.424 930.638 196.076L928.757 196.756ZM922.982 209.99C922.982 206.441 922.463 203.094 921.417 199.957L919.52 200.59C920.493 203.507 920.982 206.638 920.982 209.99H922.982ZM921.417 199.957C920.371 196.817 918.845 194.065 916.834 191.713L915.314 193.013C917.144 195.154 918.548 197.675 919.52 200.59L921.417 199.957ZM916.844 191.725C914.861 189.332 912.433 187.452 909.571 186.089L908.711 187.895C911.317 189.136 913.511 190.837 915.304 193.001L916.844 191.725ZM909.584 186.096C906.725 184.684 903.494 183.99 899.912 183.99V185.99C903.231 185.99 906.152 186.631 908.698 187.889L909.584 186.096ZM899.912 183.99H876.621V185.99H899.912V183.99ZM876.621 183.99C873.039 183.99 869.779 184.684 866.86 186.091L867.729 187.893C870.345 186.631 873.302 185.99 876.621 185.99V183.99ZM866.865 186.089C864.004 187.452 861.562 189.329 859.548 191.719L861.077 193.008C862.904 190.84 865.117 189.137 867.725 187.895L866.865 186.089ZM859.547 191.72C857.573 194.068 856.05 196.815 854.972 199.948L856.864 200.599C857.869 197.677 859.276 195.151 861.078 193.007L859.547 191.72ZM854.969 199.957C853.924 203.094 853.404 206.441 853.404 209.99H855.404C855.404 206.638 855.894 203.507 856.867 200.59L854.969 199.957ZM853.404 209.99C853.404 213.54 853.924 216.901 854.968 220.069L856.868 219.443C855.894 216.491 855.404 213.342 855.404 209.99H853.404ZM854.972 220.081C856.05 223.213 857.571 225.974 859.542 228.353L861.083 227.077C859.277 224.898 857.869 222.353 856.864 219.43L854.972 220.081ZM859.552 228.365C861.566 230.72 864.007 232.579 866.865 233.94L867.725 232.134C865.114 230.891 862.9 229.202 861.073 227.065L859.552 228.365ZM866.869 233.942C869.785 235.314 873.042 235.99 876.621 235.99V233.99C873.299 233.99 870.338 233.364 867.721 232.132L866.869 233.942ZM876.621 235.99H899.912V233.99H876.621V235.99ZM899.912 235.99C903.49 235.99 906.719 235.314 909.575 233.938L908.706 232.136C906.159 233.364 903.235 233.99 899.912 233.99V235.99ZM909.571 233.94C912.43 232.578 914.857 230.717 916.84 228.358L915.309 227.071C913.516 229.204 911.32 230.892 908.711 232.134L909.571 233.94ZM916.839 228.359C918.847 225.977 920.371 223.211 921.417 220.072L919.52 219.44C918.548 222.355 917.143 224.895 915.31 227.07L916.839 228.359ZM921.418 220.069C922.463 216.901 922.982 213.54 922.982 209.99H920.982C920.982 213.342 920.493 216.491 919.519 219.443L921.418 220.069Z" fill="#36E6F1" mask="url(#path-5-outside-3_462_303)"/>
<mask id="path-7-outside-4_462_303" maskUnits="userSpaceOnUse" x="1156" y="173" width="112" height="73" fill="black">
<rect fill="white" x="1156" y="173" width="112" height="73"/>
<path d="M1167.41 245H1157.4V174.98H1167.41V245ZM1266.77 209.99C1266.77 214.84 1265.99 219.398 1264.43 223.662C1262.9 227.926 1260.72 231.637 1257.89 234.795C1255.05 237.952 1251.65 240.443 1247.68 242.266C1243.74 244.089 1239.36 245 1234.55 245H1199.24V234.99H1234.55C1238 234.99 1241.09 234.339 1243.82 233.037C1246.59 231.735 1248.92 229.961 1250.81 227.715C1252.73 225.436 1254.19 222.783 1255.2 219.756C1256.24 216.696 1256.76 213.441 1256.76 209.99C1256.76 206.54 1256.24 203.301 1255.2 200.273C1254.19 197.246 1252.73 194.609 1250.81 192.363C1248.92 190.085 1246.59 188.294 1243.82 186.992C1241.09 185.658 1238 184.99 1234.55 184.99H1194.26V245H1184.25V174.98H1234.55C1239.36 174.98 1243.74 175.908 1247.68 177.764C1251.65 179.587 1255.05 182.093 1257.89 185.283C1260.72 188.441 1262.9 192.152 1264.43 196.416C1265.99 200.648 1266.77 205.173 1266.77 209.99Z"/>
</mask>
<path d="M1167.41 245H1157.4V174.98H1167.41V245ZM1266.77 209.99C1266.77 214.84 1265.99 219.398 1264.43 223.662C1262.9 227.926 1260.72 231.637 1257.89 234.795C1255.05 237.952 1251.65 240.443 1247.68 242.266C1243.74 244.089 1239.36 245 1234.55 245H1199.24V234.99H1234.55C1238 234.99 1241.09 234.339 1243.82 233.037C1246.59 231.735 1248.92 229.961 1250.81 227.715C1252.73 225.436 1254.19 222.783 1255.2 219.756C1256.24 216.696 1256.76 213.441 1256.76 209.99C1256.76 206.54 1256.24 203.301 1255.2 200.273C1254.19 197.246 1252.73 194.609 1250.81 192.363C1248.92 190.085 1246.59 188.294 1243.82 186.992C1241.09 185.658 1238 184.99 1234.55 184.99H1194.26V245H1184.25V174.98H1234.55C1239.36 174.98 1243.74 175.908 1247.68 177.764C1251.65 179.587 1255.05 182.093 1257.89 185.283C1260.72 188.441 1262.9 192.152 1264.43 196.416C1265.99 200.648 1266.77 205.173 1266.77 209.99Z" fill="#36E6F1" fill-opacity="0.2"/>
<path d="M1167.41 245V246H1168.41V245H1167.41ZM1157.4 245H1156.4V246H1157.4V245ZM1157.4 174.98V173.98H1156.4V174.98H1157.4ZM1167.41 174.98H1168.41V173.98H1167.41V174.98ZM1167.41 244H1157.4V246H1167.41V244ZM1158.4 245V174.98H1156.4V245H1158.4ZM1157.4 175.98H1167.41V173.98H1157.4V175.98ZM1166.41 174.98V245H1168.41V174.98H1166.41ZM1264.43 223.662L1263.49 223.318L1263.49 223.324L1264.43 223.662ZM1247.68 242.266L1247.26 241.357L1247.26 241.358L1247.68 242.266ZM1199.24 245H1198.24V246H1199.24V245ZM1199.24 234.99V233.99H1198.24V234.99H1199.24ZM1243.82 233.037L1243.4 232.132L1243.39 232.134L1243.82 233.037ZM1250.81 227.715L1250.04 227.07L1250.04 227.071L1250.81 227.715ZM1255.2 219.756L1254.25 219.434L1254.25 219.44L1255.2 219.756ZM1255.2 200.273L1254.25 200.59L1254.26 200.599L1255.2 200.273ZM1250.81 192.363L1250.04 193.001L1250.04 193.007L1250.05 193.013L1250.81 192.363ZM1243.82 186.992L1243.39 187.891L1243.39 187.894L1243.4 187.897L1243.82 186.992ZM1194.26 184.99V183.99H1193.26V184.99H1194.26ZM1194.26 245V246H1195.26V245H1194.26ZM1184.25 245H1183.25V246H1184.25V245ZM1184.25 174.98V173.98H1183.25V174.98H1184.25ZM1247.68 177.764L1247.26 178.668L1247.26 178.673L1247.68 177.764ZM1257.89 185.283L1257.14 185.947L1257.14 185.951L1257.89 185.283ZM1264.43 196.416L1263.49 196.754L1263.49 196.762L1264.43 196.416ZM1265.77 209.99C1265.77 214.731 1265.01 219.171 1263.49 223.318L1265.37 224.006C1266.97 219.624 1267.77 214.95 1267.77 209.99H1265.77ZM1263.49 223.324C1262 227.475 1259.88 231.072 1257.14 234.127L1258.63 235.463C1261.56 232.202 1263.8 228.377 1265.37 224L1263.49 223.324ZM1257.14 234.127C1254.4 237.18 1251.12 239.589 1247.26 241.357L1248.1 243.174C1252.19 241.296 1255.7 238.725 1258.63 235.463L1257.14 234.127ZM1247.26 241.358C1243.47 243.114 1239.24 244 1234.55 244V246C1239.49 246 1244.02 245.063 1248.1 243.173L1247.26 241.358ZM1234.55 244H1199.24V246H1234.55V244ZM1200.24 245V234.99H1198.24V245H1200.24ZM1199.24 235.99H1234.55V233.99H1199.24V235.99ZM1234.55 235.99C1238.13 235.99 1241.37 235.314 1244.25 233.94L1243.39 232.134C1240.81 233.364 1237.87 233.99 1234.55 233.99V235.99ZM1244.25 233.942C1247.14 232.581 1249.59 230.72 1251.57 228.358L1250.04 227.071C1248.25 229.202 1246.04 230.889 1243.4 232.132L1244.25 233.942ZM1251.57 228.359C1253.58 225.977 1255.1 223.211 1256.15 220.072L1254.25 219.44C1253.28 222.355 1251.88 224.895 1250.04 227.07L1251.57 228.359ZM1256.15 220.078C1257.23 216.908 1257.76 213.543 1257.76 209.99H1255.76C1255.76 213.339 1255.26 216.484 1254.25 219.434L1256.15 220.078ZM1257.76 209.99C1257.76 206.438 1257.23 203.088 1256.15 199.948L1254.26 200.599C1255.26 203.514 1255.76 206.642 1255.76 209.99H1257.76ZM1256.15 199.957C1255.1 196.817 1253.58 194.065 1251.57 191.713L1250.05 193.013C1251.88 195.154 1253.28 197.675 1254.25 200.59L1256.15 199.957ZM1251.58 191.725C1249.59 189.33 1247.15 187.45 1244.25 186.087L1243.4 187.897C1246.04 189.139 1248.25 190.84 1250.04 193.001L1251.58 191.725ZM1244.26 186.094C1241.37 184.684 1238.13 183.99 1234.55 183.99V185.99C1237.87 185.99 1240.81 186.631 1243.39 187.891L1244.26 186.094ZM1234.55 183.99H1194.26V185.99H1234.55V183.99ZM1193.26 184.99V245H1195.26V184.99H1193.26ZM1194.26 244H1184.25V246H1194.26V244ZM1185.25 245V174.98H1183.25V245H1185.25ZM1184.25 175.98H1234.55V173.98H1184.25V175.98ZM1234.55 175.98C1239.23 175.98 1243.46 176.882 1247.26 178.668L1248.11 176.859C1244.02 174.934 1239.5 173.98 1234.55 173.98V175.98ZM1247.26 178.673C1251.11 180.439 1254.4 182.863 1257.14 185.947L1258.63 184.619C1255.71 181.323 1252.19 178.734 1248.1 176.855L1247.26 178.673ZM1257.14 185.951C1259.88 189.006 1262 192.603 1263.49 196.754L1265.37 196.078C1263.8 191.701 1261.56 187.876 1258.63 184.616L1257.14 185.951ZM1263.49 196.762C1265.01 200.876 1265.77 205.283 1265.77 209.99H1267.77C1267.77 205.062 1266.97 200.42 1265.37 196.07L1263.49 196.762Z" fill="#36E6F1" mask="url(#path-7-outside-4_462_303)"/>
<path d="M82.79 111.981C82.79 114.641 82.1561 117.13 80.8882 119.45C79.6512 121.738 77.9504 123.748 75.7856 125.48C73.6519 127.181 71.147 128.526 68.271 129.516C65.395 130.505 62.318 131 59.04 131H5.92725V121.491H59.04C60.9883 121.491 62.8283 121.243 64.5601 120.749C66.2918 120.254 67.7917 119.573 69.0596 118.708C70.3584 117.842 71.3789 116.837 72.1211 115.692C72.8942 114.517 73.2808 113.28 73.2808 111.981V107.25H29.6772C26.3993 107.25 23.3068 106.632 20.3999 105.395C17.5239 104.158 15.0036 102.472 12.8389 100.338C10.7051 98.1737 9.01969 95.6533 7.78271 92.7773C6.54574 89.8704 5.92725 86.778 5.92725 83.5V64.4814H15.4365V83.5C15.4365 85.4792 15.8076 87.3346 16.5498 89.0664C17.292 90.7982 18.297 92.3135 19.5649 93.6123C20.8638 94.8802 22.3791 95.8853 24.1108 96.6274C25.8426 97.3696 27.6981 97.7407 29.6772 97.7407H73.2808V64.4814H82.79V111.981ZM159.931 104.884C159.931 108.472 159.251 111.842 157.89 114.997C156.529 118.151 154.674 120.919 152.324 123.3C150.004 125.65 147.268 127.521 144.113 128.913C140.959 130.273 137.588 130.969 134.001 131H119.389C115.802 130.969 112.431 130.273 109.277 128.913C106.123 127.521 103.37 125.65 101.02 123.3C98.7007 120.919 96.8607 118.151 95.5 114.997C94.1393 111.842 93.459 108.472 93.459 104.884C93.459 101.297 94.1393 97.9263 95.5 94.772C96.8607 91.5868 98.7007 88.819 101.02 86.4688C103.37 84.0876 106.123 82.2166 109.277 80.856C112.431 79.4644 115.802 78.7686 119.389 78.7686H134.001C136.382 78.7686 138.686 79.0778 140.913 79.6963C143.139 80.3148 145.211 81.1961 147.128 82.3403C149.046 83.4845 150.793 84.8607 152.37 86.4688C153.947 88.0459 155.292 89.8086 156.406 91.7568C157.519 93.6742 158.385 95.7461 159.003 97.9727C159.622 100.199 159.931 102.503 159.931 104.884ZM150.468 104.884C150.468 102.596 150.035 100.447 149.169 98.4365C148.304 96.4264 147.128 94.6792 145.644 93.1948C144.16 91.6795 142.412 90.4889 140.402 89.623C138.423 88.7262 136.289 88.2624 134.001 88.2314H119.389C117.101 88.2624 114.951 88.7262 112.941 89.623C110.962 90.4889 109.23 91.6795 107.746 93.1948C106.262 94.6792 105.087 96.4264 104.221 98.4365C103.386 100.447 102.968 102.596 102.968 104.884C102.968 107.173 103.386 109.322 104.221 111.332C105.087 113.342 106.262 115.105 107.746 116.62C109.23 118.104 110.962 119.295 112.941 120.192C114.951 121.058 117.101 121.491 119.389 121.491H134.001C136.289 121.491 138.423 121.058 140.402 120.192C142.412 119.295 144.16 118.104 145.644 116.62C147.128 115.105 148.304 113.342 149.169 111.332C150.035 109.322 150.468 107.173 150.468 104.884ZM231.042 131H195.417C191.83 131 188.459 130.32 185.305 128.959C182.15 127.567 179.398 125.696 177.048 123.346C174.729 120.965 172.889 118.197 171.528 115.043C170.167 111.858 169.487 108.472 169.487 104.884V78.7686H178.996V104.884C178.996 107.173 179.414 109.322 180.249 111.332C181.114 113.311 182.29 115.058 183.774 116.574C185.258 118.058 186.99 119.249 188.969 120.146C190.979 121.011 193.129 121.46 195.417 121.491H221.533V78.7686H231.042V131ZM296.633 88.2314H261.008C260.018 88.2314 259.09 88.4325 258.225 88.8345C257.359 89.2056 256.601 89.7158 255.952 90.3652C255.302 91.0146 254.792 91.7723 254.421 92.6382C254.05 93.5041 253.864 94.4163 253.864 95.375V131H244.355V95.375C244.355 93.0557 244.788 90.891 245.654 88.8809C246.52 86.8708 247.71 85.1235 249.226 83.6392C250.741 82.1239 252.504 80.9333 254.514 80.0674C256.524 79.2015 258.688 78.7686 261.008 78.7686H296.633V88.2314Z" fill="white"/>
<path d="M168.132 209.375C168.132 211.694 167.699 213.859 166.833 215.869C165.967 217.879 164.777 219.642 163.261 221.157C161.777 222.642 160.014 223.817 157.973 224.683C155.963 225.549 153.814 225.981 151.525 225.981H115.112C115.792 227.373 116.643 228.656 117.663 229.832C118.684 231.007 119.828 232.012 121.096 232.847C122.364 233.682 123.74 234.331 125.224 234.795C126.739 235.259 128.317 235.491 129.956 235.491H161.035V245H129.956C126.368 244.969 122.998 244.273 119.843 242.913C116.689 241.521 113.937 239.65 111.586 237.3C109.267 234.919 107.427 232.151 106.066 228.997C104.706 225.842 104.025 222.472 104.025 218.884C104.025 215.297 104.706 211.926 106.066 208.772C107.427 205.618 109.267 202.865 111.586 200.515C113.937 198.134 116.689 196.263 119.843 194.902C122.998 193.511 126.368 192.799 129.956 192.769H151.525C153.814 192.769 155.963 193.201 157.973 194.067C160.014 194.933 161.777 196.124 163.261 197.639C164.777 199.124 165.967 200.871 166.833 202.881C167.699 204.891 168.132 207.056 168.132 209.375ZM151.525 216.519C152.484 216.519 153.396 216.333 154.262 215.962C155.128 215.591 155.886 215.081 156.535 214.431C157.185 213.782 157.695 213.024 158.066 212.158C158.437 211.292 158.623 210.365 158.623 209.375C158.623 208.416 158.437 207.504 158.066 206.638C157.695 205.772 157.185 205.015 156.535 204.365C155.886 203.716 155.128 203.206 154.262 202.834C153.396 202.432 152.484 202.231 151.525 202.231H129.956C127.853 202.231 125.874 202.603 124.018 203.345C122.194 204.087 120.555 205.107 119.101 206.406C117.679 207.674 116.488 209.189 115.529 210.952C114.602 212.684 113.999 214.539 113.72 216.519H151.525ZM231.171 245H200.092C196.505 244.969 193.134 244.273 189.98 242.913C186.826 241.521 184.073 239.65 181.723 237.3C179.404 234.919 177.564 232.151 176.203 228.997C174.842 225.842 174.162 222.472 174.162 218.884C174.162 215.297 174.842 211.926 176.203 208.772C177.564 205.587 179.404 202.819 181.723 200.469C184.073 198.088 186.826 196.217 189.98 194.856C193.134 193.464 196.505 192.769 200.092 192.769H231.171V202.231H200.092C197.804 202.262 195.655 202.726 193.645 203.623C191.665 204.489 189.934 205.68 188.449 207.195C186.965 208.679 185.79 210.426 184.924 212.437C184.089 214.447 183.671 216.596 183.671 218.884C183.671 221.173 184.089 223.322 184.924 225.332C185.79 227.342 186.965 229.105 188.449 230.62C189.934 232.104 191.665 233.295 193.645 234.192C195.655 235.058 197.804 235.491 200.092 235.491H231.171V245ZM301.818 209.375C301.818 211.694 301.385 213.859 300.52 215.869C299.654 217.879 298.463 219.642 296.948 221.157C295.463 222.642 293.701 223.817 291.66 224.683C289.65 225.549 287.5 225.981 285.212 225.981H248.798C249.479 227.373 250.329 228.656 251.35 229.832C252.37 231.007 253.514 232.012 254.782 232.847C256.05 233.682 257.426 234.331 258.911 234.795C260.426 235.259 262.003 235.491 263.642 235.491H294.721V245H263.642C260.055 244.969 256.684 244.273 253.53 242.913C250.375 241.521 247.623 239.65 245.273 237.3C242.954 234.919 241.114 232.151 239.753 228.997C238.392 225.842 237.712 222.472 237.712 218.884C237.712 215.297 238.392 211.926 239.753 208.772C241.114 205.618 242.954 202.865 245.273 200.515C247.623 198.134 250.375 196.263 253.53 194.902C256.684 193.511 260.055 192.799 263.642 192.769H285.212C287.5 192.769 289.65 193.201 291.66 194.067C293.701 194.933 295.463 196.124 296.948 197.639C298.463 199.124 299.654 200.871 300.52 202.881C301.385 204.891 301.818 207.056 301.818 209.375ZM285.212 216.519C286.171 216.519 287.083 216.333 287.949 215.962C288.815 215.591 289.572 215.081 290.222 214.431C290.871 213.782 291.381 213.024 291.752 212.158C292.124 211.292 292.309 210.365 292.309 209.375C292.309 208.416 292.124 207.504 291.752 206.638C291.381 205.772 290.871 205.015 290.222 204.365C289.572 203.716 288.815 203.206 287.949 202.834C287.083 202.432 286.171 202.231 285.212 202.231H263.642C261.539 202.231 259.56 202.603 257.705 203.345C255.88 204.087 254.241 205.107 252.788 206.406C251.365 207.674 250.174 209.189 249.216 210.952C248.288 212.684 247.685 214.539 247.407 216.519H285.212ZM320.651 245H311.142V192.769H346.767C350.354 192.769 353.725 193.464 356.879 194.856C360.034 196.217 362.786 198.088 365.136 200.469C367.486 202.819 369.342 205.587 370.703 208.772C372.063 211.926 372.744 215.297 372.744 218.884V245H363.234V218.884C363.234 216.596 362.801 214.447 361.936 212.437C361.07 210.426 359.895 208.679 358.41 207.195C356.926 205.68 355.179 204.489 353.168 203.623C351.189 202.726 349.056 202.262 346.767 202.231H320.651V245ZM403.081 245H393.571V202.231H379.331V192.769H393.571V173.75H403.081V192.769H436.34V202.231H403.081V245ZM495.529 202.231H459.904C458.915 202.231 457.987 202.432 457.121 202.834C456.255 203.206 455.498 203.716 454.848 204.365C454.199 205.015 453.688 205.772 453.317 206.638C452.946 207.504 452.761 208.416 452.761 209.375V245H443.251V209.375C443.251 207.056 443.684 204.891 444.55 202.881C445.416 200.871 446.607 199.124 448.122 197.639C449.637 196.124 451.4 194.933 453.41 194.067C455.42 193.201 457.585 192.769 459.904 192.769H495.529V202.231ZM561.12 245H513.62C511.301 245 509.136 244.567 507.126 243.701C505.116 242.835 503.353 241.66 501.838 240.176C500.323 238.66 499.132 236.898 498.266 234.888C497.4 232.847 496.967 230.682 496.967 228.394C496.967 226.074 497.4 223.91 498.266 221.899C499.132 219.889 500.323 218.127 501.838 216.611C503.353 215.096 505.116 213.905 507.126 213.04C509.136 212.174 511.301 211.741 513.62 211.741H546.833V221.25H513.62C512.631 221.25 511.703 221.451 510.837 221.853C509.971 222.224 509.213 222.734 508.564 223.384C507.915 224.033 507.404 224.791 507.033 225.657C506.662 226.523 506.477 227.435 506.477 228.394C506.477 229.383 506.662 230.311 507.033 231.177C507.404 232.012 507.915 232.754 508.564 233.403C509.213 234.053 509.971 234.563 510.837 234.934C511.703 235.305 512.631 235.491 513.62 235.491H551.611V209.375C551.611 208.416 551.41 207.504 551.008 206.638C550.637 205.772 550.126 205.015 549.477 204.365C548.828 203.716 548.07 203.206 547.204 202.834C546.338 202.432 545.426 202.231 544.467 202.231H506.477V192.769H544.467C546.787 192.769 548.951 193.201 550.961 194.067C552.972 194.933 554.734 196.124 556.25 197.639C557.765 199.124 558.955 200.871 559.821 202.881C560.687 204.891 561.12 207.056 561.12 209.375V245ZM593.081 245H590.715C588.396 245 586.231 244.567 584.221 243.701C582.211 242.835 580.448 241.66 578.933 240.176C577.417 238.66 576.227 236.898 575.361 234.888C574.495 232.847 574.062 230.682 574.062 228.394V173.75H583.571V228.394C583.571 229.383 583.757 230.311 584.128 231.177C584.499 232.012 585.009 232.754 585.659 233.403C586.308 234.053 587.066 234.563 587.932 234.934C588.798 235.305 589.725 235.491 590.715 235.491H593.081V245ZM613.212 180.894C613.212 181.883 613.027 182.811 612.656 183.677C612.285 184.512 611.774 185.254 611.125 185.903C610.476 186.553 609.718 187.063 608.852 187.434C607.986 187.805 607.074 187.991 606.115 187.991C605.126 187.991 604.198 187.805 603.332 187.434C602.466 187.063 601.708 186.553 601.059 185.903C600.41 185.254 599.899 184.512 599.528 183.677C599.157 182.811 598.972 181.883 598.972 180.894C598.972 179.935 599.157 179.023 599.528 178.157C599.899 177.291 600.41 176.533 601.059 175.884C601.708 175.234 602.466 174.724 603.332 174.353C604.198 173.951 605.126 173.75 606.115 173.75C607.074 173.75 607.986 173.951 608.852 174.353C609.718 174.724 610.476 175.234 611.125 175.884C611.774 176.533 612.285 177.291 612.656 178.157C613.027 179.023 613.212 179.935 613.212 180.894ZM610.847 245H601.337V192.769H610.847V245ZM683.442 202.231L637.658 235.491H683.442V245H621.701V235.491L667.392 202.231H621.701V192.769H683.442V202.231ZM754.738 209.375C754.738 211.694 754.305 213.859 753.439 215.869C752.574 217.879 751.383 219.642 749.868 221.157C748.383 222.642 746.621 223.817 744.58 224.683C742.569 225.549 740.42 225.981 738.132 225.981H701.718C702.399 227.373 703.249 228.656 704.27 229.832C705.29 231.007 706.434 232.012 707.702 232.847C708.97 233.682 710.346 234.331 711.831 234.795C713.346 235.259 714.923 235.491 716.562 235.491H747.641V245H716.562C712.975 244.969 709.604 244.273 706.45 242.913C703.295 241.521 700.543 239.65 698.193 237.3C695.874 234.919 694.034 232.151 692.673 228.997C691.312 225.842 690.632 222.472 690.632 218.884C690.632 215.297 691.312 211.926 692.673 208.772C694.034 205.618 695.874 202.865 698.193 200.515C700.543 198.134 703.295 196.263 706.45 194.902C709.604 193.511 712.975 192.799 716.562 192.769H738.132C740.42 192.769 742.569 193.201 744.58 194.067C746.621 194.933 748.383 196.124 749.868 197.639C751.383 199.124 752.574 200.871 753.439 202.881C754.305 204.891 754.738 207.056 754.738 209.375ZM738.132 216.519C739.09 216.519 740.003 216.333 740.869 215.962C741.735 215.591 742.492 215.081 743.142 214.431C743.791 213.782 744.301 213.024 744.672 212.158C745.043 211.292 745.229 210.365 745.229 209.375C745.229 208.416 745.043 207.504 744.672 206.638C744.301 205.772 743.791 205.015 743.142 204.365C742.492 203.716 741.735 203.206 740.869 202.834C740.003 202.432 739.09 202.231 738.132 202.231H716.562C714.459 202.231 712.48 202.603 710.625 203.345C708.8 204.087 707.161 205.107 705.708 206.406C704.285 207.674 703.094 209.189 702.136 210.952C701.208 212.684 700.605 214.539 700.327 216.519H738.132ZM822.324 245H812.814V202.231H786.699C784.41 202.231 782.261 202.68 780.251 203.577C778.272 204.443 776.54 205.633 775.056 207.148C773.571 208.633 772.396 210.396 771.53 212.437C770.695 214.447 770.278 216.596 770.278 218.884C770.278 221.173 770.695 223.322 771.53 225.332C772.396 227.311 773.571 229.058 775.056 230.574C776.54 232.058 778.272 233.249 780.251 234.146C782.261 235.011 784.41 235.46 786.699 235.491H808.083V245H786.699C783.111 245 779.741 244.32 776.586 242.959C773.432 241.567 770.68 239.696 768.33 237.346C766.01 234.965 764.17 232.197 762.81 229.043C761.449 225.858 760.769 222.472 760.769 218.884C760.769 215.297 761.449 211.926 762.81 208.772C764.17 205.618 766.01 202.865 768.33 200.515C770.68 198.134 773.432 196.263 776.586 194.902C779.741 193.511 783.111 192.799 786.699 192.769H812.814V173.75H822.324V245ZM1004.44 218.884C1004.44 222.472 1003.76 225.858 1002.4 229.043C1001.04 232.197 999.181 234.965 996.831 237.346C994.48 239.696 991.728 241.567 988.574 242.959C985.419 244.32 982.049 245 978.461 245H957.124V235.491H978.461C980.75 235.46 982.884 235.011 984.863 234.146C986.873 233.249 988.62 232.058 990.104 230.574C991.589 229.058 992.764 227.311 993.63 225.332C994.496 223.322 994.929 221.173 994.929 218.884C994.929 216.596 994.496 214.447 993.63 212.437C992.764 210.396 991.589 208.633 990.104 207.148C988.62 205.633 986.873 204.443 984.863 203.577C982.884 202.68 980.75 202.231 978.461 202.231H952.346V264.019H942.836V192.769H978.461C982.049 192.799 985.419 193.511 988.574 194.902C991.728 196.263 994.48 198.134 996.831 200.515C999.181 202.865 1001.04 205.618 1002.4 208.772C1003.76 211.926 1004.44 215.297 1004.44 218.884ZM1075.55 209.375C1075.55 211.694 1075.12 213.859 1074.25 215.869C1073.38 217.879 1072.19 219.642 1070.68 221.157C1069.19 222.642 1067.43 223.817 1065.39 224.683C1063.38 225.549 1061.23 225.981 1058.94 225.981H1022.53C1023.21 227.373 1024.06 228.656 1025.08 229.832C1026.1 231.007 1027.24 232.012 1028.51 232.847C1029.78 233.682 1031.16 234.331 1032.64 234.795C1034.16 235.259 1035.73 235.491 1037.37 235.491H1068.45V245H1037.37C1033.79 244.969 1030.41 244.273 1027.26 242.913C1024.11 241.521 1021.35 239.65 1019 237.3C1016.68 234.919 1014.84 232.151 1013.48 228.997C1012.12 225.842 1011.44 222.472 1011.44 218.884C1011.44 215.297 1012.12 211.926 1013.48 208.772C1014.84 205.618 1016.68 202.865 1019 200.515C1021.35 198.134 1024.11 196.263 1027.26 194.902C1030.41 193.511 1033.79 192.799 1037.37 192.769H1058.94C1061.23 192.769 1063.38 193.201 1065.39 194.067C1067.43 194.933 1069.19 196.124 1070.68 197.639C1072.19 199.124 1073.38 200.871 1074.25 202.881C1075.12 204.891 1075.55 207.056 1075.55 209.375ZM1058.94 216.519C1059.9 216.519 1060.81 216.333 1061.68 215.962C1062.55 215.591 1063.3 215.081 1063.95 214.431C1064.6 213.782 1065.11 213.024 1065.48 212.158C1065.85 211.292 1066.04 210.365 1066.04 209.375C1066.04 208.416 1065.85 207.504 1065.48 206.638C1065.11 205.772 1064.6 205.015 1063.95 204.365C1063.3 203.716 1062.55 203.206 1061.68 202.834C1060.81 202.432 1059.9 202.231 1058.94 202.231H1037.37C1035.27 202.231 1033.29 202.603 1031.44 203.345C1029.61 204.087 1027.97 205.107 1026.52 206.406C1025.1 207.674 1023.9 209.189 1022.95 210.952C1022.02 212.684 1021.42 214.539 1021.14 216.519H1058.94ZM1094.38 245H1084.87V192.769H1120.5C1124.08 192.769 1127.46 193.464 1130.61 194.856C1133.76 196.217 1136.52 198.088 1138.87 200.469C1141.22 202.819 1143.07 205.587 1144.43 208.772C1145.79 211.926 1146.47 215.297 1146.47 218.884V245H1136.96V218.884C1136.96 216.596 1136.53 214.447 1135.67 212.437C1134.8 210.426 1133.62 208.679 1132.14 207.195C1130.66 205.68 1128.91 204.489 1126.9 203.623C1124.92 202.726 1122.79 202.262 1120.5 202.231H1094.38V245Z" fill="white"/>
<g clip-path="url(#clip0_462_303)">
<mask id="path-11-inside-5_462_303" fill="white">
<path d="M1 310H1289V510H1V310Z"/>
</mask>
<path d="M150.999 443.333C169.409 443.333 184.333 428.409 184.333 409.999C184.333 391.59 169.409 376.666 150.999 376.666C132.59 376.666 117.666 391.59 117.666 409.999C117.666 428.409 132.59 443.333 150.999 443.333Z" stroke="white" stroke-width="4" stroke-linecap="round" stroke-linejoin="round"/>
<path d="M117.666 410H184.333" stroke="white" stroke-width="4" stroke-linecap="round" stroke-linejoin="round"/>
<path d="M150.999 376.666C159.337 385.794 164.075 397.639 164.333 409.999C164.075 422.359 159.337 434.205 150.999 443.333C142.662 434.205 137.924 422.359 137.666 409.999C137.924 397.639 142.662 385.794 150.999 376.666Z" stroke="white" stroke-width="4" stroke-linecap="round" stroke-linejoin="round"/>
<mask id="path-16-inside-6_462_303" fill="white">
<path d="M301 310H989V510H301V310Z"/>
</mask>
<path d="M988 310V510H990V310H988ZM302 510V310H300V510H302Z" fill="white" mask="url(#path-16-inside-6_462_303)"/>
<path d="M478.485 384.736C478.485 385.744 478.225 386.632 477.705 387.4C477.193 388.168 476.453 388.772 475.485 389.212C474.517 389.644 473.345 389.86 471.969 389.86C470.529 389.86 469.293 389.648 468.261 389.224C467.229 388.792 466.365 388.24 465.669 387.568L467.397 385.636C467.997 386.172 468.669 386.592 469.413 386.896C470.157 387.2 470.993 387.352 471.921 387.352C472.513 387.352 473.045 387.26 473.517 387.076C473.997 386.892 474.373 386.624 474.645 386.272C474.925 385.912 475.065 385.472 475.065 384.952C475.065 384.496 474.969 384.112 474.777 383.8C474.585 383.488 474.253 383.208 473.781 382.96C473.317 382.712 472.669 382.464 471.837 382.216C470.613 381.84 469.605 381.428 468.813 380.98C468.021 380.524 467.433 379.988 467.049 379.372C466.665 378.748 466.473 378.012 466.473 377.164C466.473 376.212 466.737 375.392 467.265 374.704C467.793 374.008 468.505 373.476 469.401 373.108C470.305 372.732 471.313 372.544 472.425 372.544C473.657 372.544 474.741 372.724 475.677 373.084C476.613 373.436 477.437 373.94 478.149 374.596L476.505 376.456C475.937 375.968 475.321 375.608 474.657 375.376C474.001 375.144 473.333 375.028 472.653 375.028C472.117 375.028 471.637 375.1 471.213 375.244C470.797 375.388 470.469 375.6 470.229 375.88C469.989 376.16 469.869 376.516 469.869 376.948C469.869 377.34 469.977 377.676 470.193 377.956C470.417 378.228 470.797 378.484 471.333 378.724C471.869 378.956 472.605 379.22 473.541 379.516C474.525 379.812 475.385 380.168 476.121 380.584C476.865 381 477.445 381.54 477.861 382.204C478.277 382.86 478.485 383.704 478.485 384.736ZM491.58 386.152C491.58 386.64 491.652 386.996 491.796 387.22C491.94 387.436 492.172 387.6 492.492 387.712L491.808 389.836C491.128 389.764 490.548 389.596 490.068 389.332C489.596 389.06 489.232 388.656 488.976 388.12C488.496 388.704 487.888 389.14 487.152 389.428C486.424 389.716 485.66 389.86 484.86 389.86C483.564 389.86 482.536 389.492 481.776 388.756C481.016 388.02 480.636 387.064 480.636 385.888C480.636 384.536 481.164 383.496 482.22 382.768C483.284 382.032 484.788 381.664 486.732 381.664H488.508V380.98C488.508 380.228 488.276 379.684 487.812 379.348C487.348 379.004 486.68 378.832 485.808 378.832C485.4 378.832 484.888 378.888 484.272 379C483.664 379.104 483.036 379.268 482.388 379.492L481.632 377.32C482.44 377.016 483.252 376.792 484.068 376.648C484.892 376.504 485.64 376.432 486.312 376.432C488.096 376.432 489.42 376.812 490.284 377.572C491.148 378.324 491.58 379.392 491.58 380.776V386.152ZM485.892 387.568C486.372 387.568 486.856 387.432 487.344 387.16C487.84 386.888 488.228 386.508 488.508 386.02V383.548H487.26C486.084 383.548 485.232 383.736 484.704 384.112C484.184 384.488 483.924 385.02 483.924 385.708C483.924 386.3 484.092 386.76 484.428 387.088C484.764 387.408 485.252 387.568 485.892 387.568ZM503.714 371.38C504.562 371.38 505.314 371.448 505.97 371.584C506.626 371.72 507.222 371.904 507.758 372.136L506.846 374.272C506.422 374.096 505.978 373.968 505.514 373.888C505.05 373.808 504.586 373.768 504.122 373.768C503.322 373.768 502.738 373.92 502.37 374.224C502.01 374.52 501.83 374.996 501.83 375.652V377.656H506.03L505.682 379.924H501.83V389.5H498.674V379.924H495.878V377.656H498.674V375.58C498.674 374.756 498.874 374.032 499.274 373.408C499.674 372.776 500.25 372.28 501.002 371.92C501.762 371.56 502.666 371.38 503.714 371.38ZM512.921 384.112C512.985 384.904 513.165 385.548 513.461 386.044C513.765 386.54 514.153 386.904 514.625 387.136C515.097 387.368 515.621 387.484 516.197 387.484C516.805 387.484 517.377 387.388 517.913 387.196C518.449 387.004 518.977 386.736 519.497 386.392L520.817 388.204C520.225 388.7 519.517 389.1 518.693 389.404C517.877 389.708 516.977 389.86 515.993 389.86C514.617 389.86 513.457 389.576 512.513 389.008C511.577 388.44 510.869 387.652 510.389 386.644C509.909 385.636 509.669 384.476 509.669 383.164C509.669 381.9 509.905 380.76 510.377 379.744C510.849 378.728 511.529 377.924 512.417 377.332C513.305 376.732 514.377 376.432 515.633 376.432C516.801 376.432 517.809 376.688 518.657 377.2C519.505 377.712 520.161 378.448 520.625 379.408C521.089 380.36 521.321 381.508 521.321 382.852C521.321 383.068 521.313 383.288 521.297 383.512C521.289 383.736 521.277 383.936 521.261 384.112H512.921ZM515.645 378.664C514.877 378.664 514.245 378.94 513.749 379.492C513.261 380.036 512.973 380.9 512.885 382.084H518.237C518.221 381.012 517.997 380.176 517.565 379.576C517.141 378.968 516.501 378.664 515.645 378.664ZM524.732 389.5V387.304H526.52V378.976H524.732V376.792H528.932L529.52 379.708C529.984 378.628 530.568 377.816 531.272 377.272C531.976 376.72 532.86 376.444 533.924 376.444C534.332 376.444 534.692 376.476 535.004 376.54C535.324 376.604 535.628 376.688 535.916 376.792L534.968 379.456C534.72 379.392 534.484 379.344 534.26 379.312C534.036 379.272 533.784 379.252 533.504 379.252C532.624 379.252 531.856 379.596 531.2 380.284C530.552 380.964 530.048 381.888 529.688 383.056V387.304H532.22V389.5H524.732ZM533.24 381.748V378.376L533.672 376.792H535.916L535.352 381.748H533.24ZM544.27 384.904C544.95 384.904 545.514 385.132 545.962 385.588C546.418 386.044 546.646 386.604 546.646 387.268C546.646 387.676 546.578 388.088 546.442 388.504C546.306 388.912 546.098 389.436 545.818 390.076L544.006 394.18H541.726L542.926 389.212C542.606 388.996 542.358 388.716 542.182 388.372C542.006 388.028 541.918 387.656 541.918 387.256C541.918 386.592 542.142 386.036 542.59 385.588C543.038 385.132 543.598 384.904 544.27 384.904ZM571.984 375.328V380.212H578.044V382.636H571.984V389.5H568.696V372.904H579.208L578.86 375.328H571.984ZM592.314 386.152C592.314 386.64 592.386 386.996 592.53 387.22C592.674 387.436 592.906 387.6 593.226 387.712L592.542 389.836C591.862 389.764 591.282 389.596 590.802 389.332C590.33 389.06 589.966 388.656 589.71 388.12C589.23 388.704 588.622 389.14 587.886 389.428C587.158 389.716 586.394 389.86 585.594 389.86C584.298 389.86 583.27 389.492 582.51 388.756C581.75 388.02 581.37 387.064 581.37 385.888C581.37 384.536 581.898 383.496 582.954 382.768C584.018 382.032 585.522 381.664 587.466 381.664H589.242V380.98C589.242 380.228 589.01 379.684 588.546 379.348C588.082 379.004 587.414 378.832 586.542 378.832C586.134 378.832 585.622 378.888 585.006 379C584.398 379.104 583.77 379.268 583.122 379.492L582.366 377.32C583.174 377.016 583.986 376.792 584.802 376.648C585.626 376.504 586.374 376.432 587.046 376.432C588.83 376.432 590.154 376.812 591.018 377.572C591.882 378.324 592.314 379.392 592.314 380.776V386.152ZM586.626 387.568C587.106 387.568 587.59 387.432 588.078 387.16C588.574 386.888 588.962 386.508 589.242 386.02V383.548H587.994C586.818 383.548 585.966 383.736 585.438 384.112C584.918 384.488 584.658 385.02 584.658 385.708C584.658 386.3 584.826 386.76 585.162 387.088C585.498 387.408 585.986 387.568 586.626 387.568ZM601.401 387.52C602.145 387.52 602.741 387.392 603.189 387.136C603.645 386.872 603.873 386.504 603.873 386.032C603.873 385.72 603.797 385.456 603.645 385.24C603.501 385.024 603.213 384.824 602.781 384.64C602.349 384.448 601.701 384.236 600.837 384.004C600.021 383.796 599.305 383.54 598.689 383.236C598.081 382.924 597.605 382.524 597.261 382.036C596.925 381.548 596.757 380.932 596.757 380.188C596.757 379.444 596.965 378.792 597.381 378.232C597.797 377.664 598.397 377.224 599.181 376.912C599.973 376.592 600.925 376.432 602.037 376.432C603.125 376.432 604.077 376.576 604.893 376.864C605.709 377.144 606.409 377.496 606.993 377.92L605.697 379.852C605.185 379.524 604.629 379.26 604.029 379.06C603.437 378.852 602.797 378.748 602.109 378.748C601.365 378.748 600.821 378.856 600.477 379.072C600.141 379.288 599.973 379.588 599.973 379.972C599.973 380.244 600.057 380.476 600.225 380.668C600.401 380.852 600.713 381.032 601.161 381.208C601.617 381.376 602.265 381.58 603.105 381.82C603.929 382.044 604.645 382.308 605.253 382.612C605.869 382.916 606.345 383.32 606.681 383.824C607.017 384.328 607.185 384.988 607.185 385.804C607.185 386.724 606.917 387.484 606.381 388.084C605.845 388.684 605.137 389.132 604.257 389.428C603.385 389.716 602.437 389.86 601.413 389.86C600.213 389.86 599.165 389.688 598.269 389.344C597.373 389 596.613 388.556 595.989 388.012L597.633 386.164C598.129 386.556 598.693 386.88 599.325 387.136C599.965 387.392 600.657 387.52 601.401 387.52ZM621.923 388.792C621.451 389.104 620.879 389.36 620.207 389.56C619.535 389.76 618.807 389.86 618.023 389.86C616.471 389.86 615.303 389.46 614.519 388.66C613.735 387.852 613.343 386.78 613.343 385.444V379.036H610.583V376.792H613.343V373.996L616.511 373.612V376.792H620.711L620.387 379.036H616.511V385.432C616.511 386.088 616.671 386.568 616.991 386.872C617.311 387.176 617.827 387.328 618.539 387.328C618.995 387.328 619.411 387.276 619.787 387.172C620.171 387.06 620.519 386.92 620.831 386.752L621.923 388.792ZM628.046 384.112C628.11 384.904 628.29 385.548 628.586 386.044C628.89 386.54 629.278 386.904 629.75 387.136C630.222 387.368 630.746 387.484 631.322 387.484C631.93 387.484 632.502 387.388 633.038 387.196C633.574 387.004 634.102 386.736 634.622 386.392L635.942 388.204C635.35 388.7 634.642 389.1 633.818 389.404C633.002 389.708 632.102 389.86 631.118 389.86C629.742 389.86 628.582 389.576 627.638 389.008C626.702 388.44 625.994 387.652 625.514 386.644C625.034 385.636 624.794 384.476 624.794 383.164C624.794 381.9 625.03 380.76 625.502 379.744C625.974 378.728 626.654 377.924 627.542 377.332C628.43 376.732 629.502 376.432 630.758 376.432C631.926 376.432 632.934 376.688 633.782 377.2C634.63 377.712 635.286 378.448 635.75 379.408C636.214 380.36 636.446 381.508 636.446 382.852C636.446 383.068 636.438 383.288 636.422 383.512C636.414 383.736 636.402 383.936 636.386 384.112H628.046ZM630.77 378.664C630.002 378.664 629.37 378.94 628.874 379.492C628.386 380.036 628.098 380.9 628.01 382.084H633.362C633.346 381.012 633.122 380.176 632.69 379.576C632.266 378.968 631.626 378.664 630.77 378.664ZM639.857 389.5V387.304H641.645V378.976H639.857V376.792H644.057L644.645 379.708C645.109 378.628 645.693 377.816 646.397 377.272C647.101 376.72 647.985 376.444 649.049 376.444C649.457 376.444 649.817 376.476 650.129 376.54C650.449 376.604 650.753 376.688 651.041 376.792L650.093 379.456C649.845 379.392 649.609 379.344 649.385 379.312C649.161 379.272 648.909 379.252 648.629 379.252C647.749 379.252 646.981 379.596 646.325 380.284C645.677 380.964 645.173 381.888 644.813 383.056V387.304H647.345V389.5H639.857ZM648.365 381.748V378.376L648.797 376.792H651.041L650.477 381.748H648.365ZM678.658 386.152C678.658 386.64 678.73 386.996 678.874 387.22C679.018 387.436 679.25 387.6 679.57 387.712L678.886 389.836C678.206 389.764 677.626 389.596 677.146 389.332C676.674 389.06 676.31 388.656 676.054 388.12C675.574 388.704 674.966 389.14 674.23 389.428C673.502 389.716 672.738 389.86 671.938 389.86C670.642 389.86 669.614 389.492 668.854 388.756C668.094 388.02 667.714 387.064 667.714 385.888C667.714 384.536 668.242 383.496 669.298 382.768C670.362 382.032 671.866 381.664 673.81 381.664H675.586V380.98C675.586 380.228 675.354 379.684 674.89 379.348C674.426 379.004 673.758 378.832 672.886 378.832C672.478 378.832 671.966 378.888 671.35 379C670.742 379.104 670.114 379.268 669.466 379.492L668.71 377.32C669.518 377.016 670.33 376.792 671.146 376.648C671.97 376.504 672.718 376.432 673.39 376.432C675.174 376.432 676.498 376.812 677.362 377.572C678.226 378.324 678.658 379.392 678.658 380.776V386.152ZM672.97 387.568C673.45 387.568 673.934 387.432 674.422 387.16C674.918 386.888 675.306 386.508 675.586 386.02V383.548H674.338C673.162 383.548 672.31 383.736 671.782 384.112C671.262 384.488 671.002 385.02 671.002 385.708C671.002 386.3 671.17 386.76 671.506 387.088C671.842 387.408 672.33 387.568 672.97 387.568ZM682.909 389.5V376.792H685.669L685.897 378.364C686.441 377.724 687.053 377.244 687.733 376.924C688.413 376.596 689.145 376.432 689.929 376.432C691.073 376.432 691.945 376.764 692.545 377.428C693.145 378.084 693.445 379.008 693.445 380.2V389.5H690.277V381.436C690.277 380.796 690.237 380.284 690.157 379.9C690.077 379.508 689.925 379.228 689.701 379.06C689.477 378.884 689.153 378.796 688.729 378.796C688.385 378.796 688.053 378.872 687.733 379.024C687.421 379.176 687.125 379.38 686.845 379.636C686.573 379.892 686.317 380.176 686.077 380.488V389.5H682.909ZM704.667 371.38L707.835 371.716V389.5H705.027L704.835 388C704.443 388.56 703.951 389.012 703.359 389.356C702.767 389.692 702.079 389.86 701.295 389.86C700.223 389.86 699.335 389.58 698.631 389.02C697.935 388.46 697.415 387.676 697.071 386.668C696.735 385.652 696.567 384.472 696.567 383.128C696.567 381.832 696.767 380.68 697.167 379.672C697.567 378.664 698.143 377.872 698.895 377.296C699.655 376.72 700.555 376.432 701.595 376.432C702.219 376.432 702.787 376.54 703.299 376.756C703.811 376.972 704.267 377.292 704.667 377.716V371.38ZM702.447 378.796C701.647 378.796 701.015 379.144 700.551 379.84C700.095 380.528 699.867 381.628 699.867 383.14C699.867 384.204 699.963 385.056 700.155 385.696C700.347 386.328 700.619 386.784 700.971 387.064C701.323 387.344 701.739 387.484 702.219 387.484C702.747 387.484 703.211 387.328 703.611 387.016C704.019 386.696 704.371 386.3 704.667 385.828V380.044C704.371 379.652 704.039 379.348 703.671 379.132C703.311 378.908 702.903 378.796 702.447 378.796ZM729.944 375.328V379.876H735.824V382.264H729.944V387.088H737.084V389.5H726.656V372.904H737L736.664 375.328H729.944ZM750.611 386.152C750.611 386.64 750.683 386.996 750.827 387.22C750.971 387.436 751.203 387.6 751.523 387.712L750.839 389.836C750.159 389.764 749.579 389.596 749.099 389.332C748.627 389.06 748.263 388.656 748.007 388.12C747.527 388.704 746.919 389.14 746.183 389.428C745.455 389.716 744.691 389.86 743.891 389.86C742.595 389.86 741.567 389.492 740.807 388.756C740.047 388.02 739.667 387.064 739.667 385.888C739.667 384.536 740.195 383.496 741.251 382.768C742.315 382.032 743.819 381.664 745.763 381.664H747.539V380.98C747.539 380.228 747.307 379.684 746.843 379.348C746.379 379.004 745.711 378.832 744.839 378.832C744.431 378.832 743.919 378.888 743.303 379C742.695 379.104 742.067 379.268 741.419 379.492L740.663 377.32C741.471 377.016 742.283 376.792 743.099 376.648C743.923 376.504 744.671 376.432 745.343 376.432C747.127 376.432 748.451 376.812 749.315 377.572C750.179 378.324 750.611 379.392 750.611 380.776V386.152ZM744.923 387.568C745.403 387.568 745.887 387.432 746.375 387.16C746.871 386.888 747.259 386.508 747.539 386.02V383.548H746.291C745.115 383.548 744.263 383.736 743.735 384.112C743.215 384.488 742.955 385.02 742.955 385.708C742.955 386.3 743.123 386.76 743.459 387.088C743.795 387.408 744.283 387.568 744.923 387.568ZM759.698 387.52C760.442 387.52 761.038 387.392 761.486 387.136C761.942 386.872 762.17 386.504 762.17 386.032C762.17 385.72 762.094 385.456 761.942 385.24C761.798 385.024 761.51 384.824 761.078 384.64C760.646 384.448 759.998 384.236 759.134 384.004C758.318 383.796 757.602 383.54 756.986 383.236C756.378 382.924 755.902 382.524 755.558 382.036C755.222 381.548 755.054 380.932 755.054 380.188C755.054 379.444 755.262 378.792 755.678 378.232C756.094 377.664 756.694 377.224 757.478 376.912C758.27 376.592 759.222 376.432 760.334 376.432C761.422 376.432 762.374 376.576 763.19 376.864C764.006 377.144 764.706 377.496 765.29 377.92L763.994 379.852C763.482 379.524 762.926 379.26 762.326 379.06C761.734 378.852 761.094 378.748 760.406 378.748C759.662 378.748 759.118 378.856 758.774 379.072C758.438 379.288 758.27 379.588 758.27 379.972C758.27 380.244 758.354 380.476 758.522 380.668C758.698 380.852 759.01 381.032 759.458 381.208C759.914 381.376 760.562 381.58 761.402 381.82C762.226 382.044 762.942 382.308 763.55 382.612C764.166 382.916 764.642 383.32 764.978 383.824C765.314 384.328 765.482 384.988 765.482 385.804C765.482 386.724 765.214 387.484 764.678 388.084C764.142 388.684 763.434 389.132 762.554 389.428C761.682 389.716 760.734 389.86 759.71 389.86C758.51 389.86 757.462 389.688 756.566 389.344C755.67 389 754.91 388.556 754.286 388.012L755.93 386.164C756.426 386.556 756.99 386.88 757.622 387.136C758.262 387.392 758.954 387.52 759.698 387.52ZM776.56 376.792V387.256H779.908V389.5H769.672V387.256H773.392V379.036H769.792V376.792H776.56ZM774.508 370.384C775.092 370.384 775.564 370.564 775.924 370.924C776.292 371.284 776.476 371.732 776.476 372.268C776.476 372.804 776.292 373.256 775.924 373.624C775.564 373.984 775.092 374.164 774.508 374.164C773.924 374.164 773.448 373.984 773.08 373.624C772.712 373.256 772.528 372.804 772.528 372.268C772.528 371.732 772.712 371.284 773.08 370.924C773.448 370.564 773.924 370.384 774.508 370.384ZM786.343 384.112C786.407 384.904 786.587 385.548 786.883 386.044C787.187 386.54 787.575 386.904 788.047 387.136C788.519 387.368 789.043 387.484 789.619 387.484C790.227 387.484 790.799 387.388 791.335 387.196C791.871 387.004 792.399 386.736 792.919 386.392L794.239 388.204C793.647 388.7 792.939 389.1 792.115 389.404C791.299 389.708 790.399 389.86 789.415 389.86C788.039 389.86 786.879 389.576 785.935 389.008C784.999 388.44 784.291 387.652 783.811 386.644C783.331 385.636 783.091 384.476 783.091 383.164C783.091 381.9 783.327 380.76 783.799 379.744C784.271 378.728 784.951 377.924 785.839 377.332C786.727 376.732 787.799 376.432 789.055 376.432C790.223 376.432 791.231 376.688 792.079 377.2C792.927 377.712 793.583 378.448 794.047 379.408C794.511 380.36 794.743 381.508 794.743 382.852C794.743 383.068 794.735 383.288 794.719 383.512C794.711 383.736 794.699 383.936 794.683 384.112H786.343ZM789.067 378.664C788.299 378.664 787.667 378.94 787.171 379.492C786.683 380.036 786.395 380.9 786.307 382.084H791.659C791.643 381.012 791.419 380.176 790.987 379.576C790.563 378.968 789.923 378.664 789.067 378.664ZM798.154 389.5V387.304H799.942V378.976H798.154V376.792H802.354L802.942 379.708C803.406 378.628 803.99 377.816 804.694 377.272C805.398 376.72 806.282 376.444 807.346 376.444C807.754 376.444 808.114 376.476 808.426 376.54C808.746 376.604 809.05 376.688 809.338 376.792L808.39 379.456C808.142 379.392 807.906 379.344 807.682 379.312C807.458 379.272 807.206 379.252 806.926 379.252C806.046 379.252 805.278 379.596 804.622 380.284C803.974 380.964 803.47 381.888 803.11 383.056V387.304H805.642V389.5H798.154ZM806.662 381.748V378.376L807.094 376.792H809.338L808.774 381.748H806.662Z" fill="#36E6F1"/>
<path d="M512.921 413.112C512.985 413.904 513.165 414.548 513.461 415.044C513.765 415.54 514.153 415.904 514.625 416.136C515.097 416.368 515.621 416.484 516.197 416.484C516.805 416.484 517.377 416.388 517.913 416.196C518.449 416.004 518.977 415.736 519.497 415.392L520.817 417.204C520.225 417.7 519.517 418.1 518.693 418.404C517.877 418.708 516.977 418.86 515.993 418.86C514.617 418.86 513.457 418.576 512.513 418.008C511.577 417.44 510.869 416.652 510.389 415.644C509.909 414.636 509.669 413.476 509.669 412.164C509.669 410.9 509.905 409.76 510.377 408.744C510.849 407.728 511.529 406.924 512.417 406.332C513.305 405.732 514.377 405.432 515.633 405.432C516.801 405.432 517.809 405.688 518.657 406.2C519.505 406.712 520.161 407.448 520.625 408.408C521.089 409.36 521.321 410.508 521.321 411.852C521.321 412.068 521.313 412.288 521.297 412.512C521.289 412.736 521.277 412.936 521.261 413.112H512.921ZM515.645 407.664C514.877 407.664 514.245 407.94 513.749 408.492C513.261 409.036 512.973 409.9 512.885 411.084H518.237C518.221 410.012 517.997 409.176 517.565 408.576C517.141 407.968 516.501 407.664 515.645 407.664ZM524.612 418.5V405.792H527.372L527.6 407.364C528.144 406.724 528.756 406.244 529.436 405.924C530.116 405.596 530.848 405.432 531.632 405.432C532.776 405.432 533.648 405.764 534.248 406.428C534.848 407.084 535.148 408.008 535.148 409.2V418.5H531.98V410.436C531.98 409.796 531.94 409.284 531.86 408.9C531.78 408.508 531.628 408.228 531.404 408.06C531.18 407.884 530.856 407.796 530.432 407.796C530.088 407.796 529.756 407.872 529.436 408.024C529.124 408.176 528.828 408.38 528.548 408.636C528.276 408.892 528.02 409.176 527.78 409.488V418.5H524.612ZM549.97 417.792C549.498 418.104 548.926 418.36 548.254 418.56C547.582 418.76 546.854 418.86 546.07 418.86C544.518 418.86 543.35 418.46 542.566 417.66C541.782 416.852 541.39 415.78 541.39 414.444V408.036H538.63V405.792H541.39V402.996L544.558 402.612V405.792H548.758L548.434 408.036H544.558V414.432C544.558 415.088 544.718 415.568 545.038 415.872C545.358 416.176 545.874 416.328 546.586 416.328C547.042 416.328 547.458 416.276 547.834 416.172C548.218 416.06 548.566 415.92 548.878 415.752L549.97 417.792ZM553.513 418.5V416.304H555.301V407.976H553.513V405.792H557.713L558.301 408.708C558.765 407.628 559.349 406.816 560.053 406.272C560.757 405.72 561.641 405.444 562.705 405.444C563.113 405.444 563.473 405.476 563.785 405.54C564.105 405.604 564.409 405.688 564.697 405.792L563.749 408.456C563.501 408.392 563.265 408.344 563.041 408.312C562.817 408.272 562.565 408.252 562.285 408.252C561.405 408.252 560.637 408.596 559.981 409.284C559.333 409.964 558.829 410.888 558.469 412.056V416.304H561.001V418.5H553.513ZM562.021 410.748V407.376L562.453 405.792H564.697L564.133 410.748H562.021ZM577.924 415.152C577.924 415.64 577.996 415.996 578.14 416.22C578.284 416.436 578.516 416.6 578.836 416.712L578.152 418.836C577.472 418.764 576.892 418.596 576.412 418.332C575.94 418.06 575.576 417.656 575.32 417.12C574.84 417.704 574.232 418.14 573.496 418.428C572.768 418.716 572.004 418.86 571.204 418.86C569.908 418.86 568.88 418.492 568.12 417.756C567.36 417.02 566.98 416.064 566.98 414.888C566.98 413.536 567.508 412.496 568.564 411.768C569.628 411.032 571.132 410.664 573.076 410.664H574.852V409.98C574.852 409.228 574.62 408.684 574.156 408.348C573.692 408.004 573.024 407.832 572.152 407.832C571.744 407.832 571.232 407.888 570.616 408C570.008 408.104 569.38 408.268 568.732 408.492L567.976 406.32C568.784 406.016 569.596 405.792 570.412 405.648C571.236 405.504 571.984 405.432 572.656 405.432C574.44 405.432 575.764 405.812 576.628 406.572C577.492 407.324 577.924 408.392 577.924 409.776V415.152ZM572.236 416.568C572.716 416.568 573.2 416.432 573.688 416.16C574.184 415.888 574.572 415.508 574.852 415.02V412.548H573.604C572.428 412.548 571.576 412.736 571.048 413.112C570.528 413.488 570.268 414.02 570.268 414.708C570.268 415.3 570.436 415.76 570.772 416.088C571.108 416.408 571.596 416.568 572.236 416.568ZM582.174 418.5V405.792H584.934L585.162 407.364C585.706 406.724 586.318 406.244 586.998 405.924C587.678 405.596 588.41 405.432 589.194 405.432C590.338 405.432 591.21 405.764 591.81 406.428C592.41 407.084 592.71 408.008 592.71 409.2V418.5H589.542V410.436C589.542 409.796 589.502 409.284 589.422 408.9C589.342 408.508 589.19 408.228 588.966 408.06C588.742 407.884 588.418 407.796 587.994 407.796C587.65 407.796 587.318 407.872 586.998 408.024C586.686 408.176 586.39 408.38 586.11 408.636C585.838 408.892 585.582 409.176 585.342 409.488V418.5H582.174ZM602.961 416.316C603.521 416.316 604.045 416.212 604.533 416.004C605.029 415.796 605.505 415.532 605.961 415.212L607.401 417.24C606.841 417.712 606.165 418.1 605.373 418.404C604.581 418.708 603.733 418.86 602.829 418.86C601.501 418.86 600.361 418.584 599.409 418.032C598.465 417.472 597.737 416.696 597.225 415.704C596.721 414.704 596.469 413.544 596.469 412.224C596.469 410.92 596.725 409.756 597.237 408.732C597.757 407.7 598.493 406.892 599.445 406.308C600.405 405.724 601.549 405.432 602.877 405.432C603.789 405.432 604.613 405.564 605.349 405.828C606.093 406.084 606.773 406.468 607.389 406.98L605.985 408.924C605.513 408.596 605.025 408.348 604.521 408.18C604.025 408.004 603.509 407.916 602.973 407.916C602.037 407.916 601.273 408.256 600.681 408.936C600.097 409.608 599.805 410.704 599.805 412.224C599.805 413.224 599.941 414.024 600.213 414.624C600.493 415.224 600.869 415.656 601.341 415.92C601.821 416.184 602.361 416.316 602.961 416.316ZM613.655 413.112C613.719 413.904 613.899 414.548 614.195 415.044C614.499 415.54 614.887 415.904 615.359 416.136C615.831 416.368 616.355 416.484 616.931 416.484C617.539 416.484 618.111 416.388 618.647 416.196C619.183 416.004 619.711 415.736 620.231 415.392L621.551 417.204C620.959 417.7 620.251 418.1 619.427 418.404C618.611 418.708 617.711 418.86 616.727 418.86C615.351 418.86 614.191 418.576 613.247 418.008C612.311 417.44 611.603 416.652 611.123 415.644C610.643 414.636 610.403 413.476 610.403 412.164C610.403 410.9 610.639 409.76 611.111 408.744C611.583 407.728 612.263 406.924 613.151 406.332C614.039 405.732 615.111 405.432 616.367 405.432C617.535 405.432 618.543 405.688 619.391 406.2C620.239 406.712 620.895 407.448 621.359 408.408C621.823 409.36 622.055 410.508 622.055 411.852C622.055 412.068 622.047 412.288 622.031 412.512C622.023 412.736 622.011 412.936 621.995 413.112H613.655ZM616.379 407.664C615.611 407.664 614.979 407.94 614.483 408.492C613.995 409.036 613.707 409.9 613.619 411.084H618.971C618.955 410.012 618.731 409.176 618.299 408.576C617.875 407.968 617.235 407.664 616.379 407.664ZM650.705 417.792C650.233 418.104 649.661 418.36 648.989 418.56C648.317 418.76 647.589 418.86 646.805 418.86C645.253 418.86 644.085 418.46 643.301 417.66C642.517 416.852 642.125 415.78 642.125 414.444V408.036H639.365V405.792H642.125V402.996L645.293 402.612V405.792H649.493L649.169 408.036H645.293V414.432C645.293 415.088 645.453 415.568 645.773 415.872C646.093 416.176 646.609 416.328 647.321 416.328C647.777 416.328 648.193 416.276 648.569 416.172C648.953 416.06 649.301 415.92 649.613 415.752L650.705 417.792ZM659.407 405.432C660.671 405.432 661.743 405.708 662.623 406.26C663.503 406.812 664.171 407.592 664.627 408.6C665.091 409.6 665.323 410.772 665.323 412.116C665.323 413.492 665.091 414.684 664.627 415.692C664.163 416.7 663.491 417.48 662.611 418.032C661.731 418.584 660.659 418.86 659.395 418.86C658.139 418.86 657.067 418.592 656.179 418.056C655.299 417.512 654.627 416.74 654.163 415.74C653.699 414.732 653.467 413.532 653.467 412.14C653.467 410.812 653.699 409.644 654.163 408.636C654.627 407.628 655.303 406.844 656.191 406.284C657.079 405.716 658.151 405.432 659.407 405.432ZM659.407 407.82C658.519 407.82 657.855 408.168 657.415 408.864C656.983 409.56 656.767 410.652 656.767 412.14C656.767 413.644 656.983 414.744 657.415 415.44C657.847 416.128 658.507 416.472 659.395 416.472C660.283 416.472 660.943 416.128 661.375 415.44C661.807 414.744 662.023 413.636 662.023 412.116C662.023 410.636 661.807 409.552 661.375 408.864C660.943 408.168 660.287 407.82 659.407 407.82ZM689.305 416.316C689.865 416.316 690.389 416.212 690.877 416.004C691.373 415.796 691.849 415.532 692.305 415.212L693.745 417.24C693.185 417.712 692.509 418.1 691.717 418.404C690.925 418.708 690.077 418.86 689.173 418.86C687.845 418.86 686.705 418.584 685.753 418.032C684.809 417.472 684.081 416.696 683.569 415.704C683.065 414.704 682.813 413.544 682.813 412.224C682.813 410.92 683.069 409.756 683.581 408.732C684.101 407.7 684.837 406.892 685.789 406.308C686.749 405.724 687.893 405.432 689.221 405.432C690.133 405.432 690.957 405.564 691.693 405.828C692.437 406.084 693.117 406.468 693.733 406.98L692.329 408.924C691.857 408.596 691.369 408.348 690.865 408.18C690.369 408.004 689.853 407.916 689.317 407.916C688.381 407.916 687.617 408.256 687.025 408.936C686.441 409.608 686.149 410.704 686.149 412.224C686.149 413.224 686.285 414.024 686.557 414.624C686.837 415.224 687.213 415.656 687.685 415.92C688.165 416.184 688.705 416.316 689.305 416.316ZM700.467 400.416V407.22C700.995 406.62 701.587 406.172 702.243 405.876C702.907 405.58 703.599 405.432 704.319 405.432C705.487 405.432 706.363 405.764 706.947 406.428C707.539 407.084 707.835 408.008 707.835 409.2V418.5H704.667V409.908C704.667 409.14 704.547 408.596 704.307 408.276C704.075 407.956 703.675 407.796 703.107 407.796C702.771 407.796 702.443 407.876 702.123 408.036C701.811 408.188 701.515 408.396 701.235 408.66C700.963 408.924 700.707 409.22 700.467 409.548V418.5H697.299V400.728L700.467 400.416ZM721.83 415.152C721.83 415.64 721.902 415.996 722.046 416.22C722.19 416.436 722.422 416.6 722.742 416.712L722.058 418.836C721.378 418.764 720.798 418.596 720.318 418.332C719.846 418.06 719.482 417.656 719.226 417.12C718.746 417.704 718.138 418.14 717.402 418.428C716.674 418.716 715.91 418.86 715.11 418.86C713.814 418.86 712.786 418.492 712.026 417.756C711.266 417.02 710.886 416.064 710.886 414.888C710.886 413.536 711.414 412.496 712.47 411.768C713.534 411.032 715.038 410.664 716.982 410.664H718.758V409.98C718.758 409.228 718.526 408.684 718.062 408.348C717.598 408.004 716.93 407.832 716.058 407.832C715.65 407.832 715.138 407.888 714.522 408C713.914 408.104 713.286 408.268 712.638 408.492L711.882 406.32C712.69 406.016 713.502 405.792 714.318 405.648C715.142 405.504 715.89 405.432 716.562 405.432C718.346 405.432 719.67 405.812 720.534 406.572C721.398 407.324 721.83 408.392 721.83 409.776V415.152ZM716.142 416.568C716.622 416.568 717.106 416.432 717.594 416.16C718.09 415.888 718.478 415.508 718.758 415.02V412.548H717.51C716.334 412.548 715.482 412.736 714.954 413.112C714.434 413.488 714.174 414.02 714.174 414.708C714.174 415.3 714.342 415.76 714.678 416.088C715.014 416.408 715.502 416.568 716.142 416.568ZM733.388 405.792V416.256H736.736V418.5H726.5V416.256H730.22V408.036H726.62V405.792H733.388ZM731.336 399.384C731.92 399.384 732.392 399.564 732.752 399.924C733.12 400.284 733.304 400.732 733.304 401.268C733.304 401.804 733.12 402.256 732.752 402.624C732.392 402.984 731.92 403.164 731.336 403.164C730.752 403.164 730.276 402.984 729.908 402.624C729.54 402.256 729.356 401.804 729.356 401.268C729.356 400.732 729.54 400.284 729.908 399.924C730.276 399.564 730.752 399.384 731.336 399.384ZM740.471 418.5V405.792H743.231L743.459 407.364C744.003 406.724 744.615 406.244 745.295 405.924C745.975 405.596 746.707 405.432 747.491 405.432C748.635 405.432 749.507 405.764 750.107 406.428C750.707 407.084 751.007 408.008 751.007 409.2V418.5H747.839V410.436C747.839 409.796 747.799 409.284 747.719 408.9C747.639 408.508 747.487 408.228 747.263 408.06C747.039 407.884 746.715 407.796 746.291 407.796C745.947 407.796 745.615 407.872 745.295 408.024C744.983 408.176 744.687 408.38 744.407 408.636C744.135 408.892 743.879 409.176 743.639 409.488V418.5H740.471ZM759.698 416.52C760.442 416.52 761.038 416.392 761.486 416.136C761.942 415.872 762.17 415.504 762.17 415.032C762.17 414.72 762.094 414.456 761.942 414.24C761.798 414.024 761.51 413.824 761.078 413.64C760.646 413.448 759.998 413.236 759.134 413.004C758.318 412.796 757.602 412.54 756.986 412.236C756.378 411.924 755.902 411.524 755.558 411.036C755.222 410.548 755.054 409.932 755.054 409.188C755.054 408.444 755.262 407.792 755.678 407.232C756.094 406.664 756.694 406.224 757.478 405.912C758.27 405.592 759.222 405.432 760.334 405.432C761.422 405.432 762.374 405.576 763.19 405.864C764.006 406.144 764.706 406.496 765.29 406.92L763.994 408.852C763.482 408.524 762.926 408.26 762.326 408.06C761.734 407.852 761.094 407.748 760.406 407.748C759.662 407.748 759.118 407.856 758.774 408.072C758.438 408.288 758.27 408.588 758.27 408.972C758.27 409.244 758.354 409.476 758.522 409.668C758.698 409.852 759.01 410.032 759.458 410.208C759.914 410.376 760.562 410.58 761.402 410.82C762.226 411.044 762.942 411.308 763.55 411.612C764.166 411.916 764.642 412.32 764.978 412.824C765.314 413.328 765.482 413.988 765.482 414.804C765.482 415.724 765.214 416.484 764.678 417.084C764.142 417.684 763.434 418.132 762.554 418.428C761.682 418.716 760.734 418.86 759.71 418.86C758.51 418.86 757.462 418.688 756.566 418.344C755.67 418 754.91 417.556 754.286 417.012L755.93 415.164C756.426 415.556 756.99 415.88 757.622 416.136C758.262 416.392 758.954 416.52 759.698 416.52ZM774.52 413.904C775.2 413.904 775.764 414.132 776.212 414.588C776.668 415.044 776.896 415.604 776.896 416.268C776.896 416.676 776.828 417.088 776.692 417.504C776.556 417.912 776.348 418.436 776.068 419.076L774.256 423.18H771.976L773.176 418.212C772.856 417.996 772.608 417.716 772.432 417.372C772.256 417.028 772.168 416.656 772.168 416.256C772.168 415.592 772.392 415.036 772.84 414.588C773.288 414.132 773.848 413.904 774.52 413.904ZM523.812 445.316C524.372 445.316 524.896 445.212 525.384 445.004C525.88 444.796 526.356 444.532 526.812 444.212L528.252 446.24C527.692 446.712 527.016 447.1 526.224 447.404C525.432 447.708 524.584 447.86 523.68 447.86C522.352 447.86 521.212 447.584 520.26 447.032C519.316 446.472 518.588 445.696 518.076 444.704C517.572 443.704 517.32 442.544 517.32 441.224C517.32 439.92 517.576 438.756 518.088 437.732C518.608 436.7 519.344 435.892 520.296 435.308C521.256 434.724 522.4 434.432 523.728 434.432C524.64 434.432 525.464 434.564 526.2 434.828C526.944 435.084 527.624 435.468 528.24 435.98L526.836 437.924C526.364 437.596 525.876 437.348 525.372 437.18C524.876 437.004 524.36 436.916 523.824 436.916C522.888 436.916 522.124 437.256 521.532 437.936C520.948 438.608 520.656 439.704 520.656 441.224C520.656 442.224 520.792 443.024 521.064 443.624C521.344 444.224 521.72 444.656 522.192 444.92C522.672 445.184 523.212 445.316 523.812 445.316ZM537.087 434.432C538.351 434.432 539.423 434.708 540.303 435.26C541.183 435.812 541.851 436.592 542.307 437.6C542.771 438.6 543.003 439.772 543.003 441.116C543.003 442.492 542.771 443.684 542.307 444.692C541.843 445.7 541.171 446.48 540.291 447.032C539.411 447.584 538.339 447.86 537.075 447.86C535.819 447.86 534.747 447.592 533.859 447.056C532.979 446.512 532.307 445.74 531.843 444.74C531.379 443.732 531.147 442.532 531.147 441.14C531.147 439.812 531.379 438.644 531.843 437.636C532.307 436.628 532.983 435.844 533.871 435.284C534.759 434.716 535.831 434.432 537.087 434.432ZM537.087 436.82C536.199 436.82 535.535 437.168 535.095 437.864C534.663 438.56 534.447 439.652 534.447 441.14C534.447 442.644 534.663 443.744 535.095 444.44C535.527 445.128 536.187 445.472 537.075 445.472C537.963 445.472 538.623 445.128 539.055 444.44C539.487 443.744 539.703 442.636 539.703 441.116C539.703 439.636 539.487 438.552 539.055 437.864C538.623 437.168 537.967 436.82 537.087 436.82ZM546.198 447.5V434.792H548.958L549.186 436.364C549.73 435.724 550.342 435.244 551.022 434.924C551.702 434.596 552.434 434.432 553.218 434.432C554.362 434.432 555.234 434.764 555.834 435.428C556.434 436.084 556.734 437.008 556.734 438.2V447.5H553.566V439.436C553.566 438.796 553.526 438.284 553.446 437.9C553.366 437.508 553.214 437.228 552.99 437.06C552.766 436.884 552.442 436.796 552.018 436.796C551.674 436.796 551.342 436.872 551.022 437.024C550.71 437.176 550.414 437.38 550.134 437.636C549.862 437.892 549.606 438.176 549.366 438.488V447.5H546.198ZM571.556 446.792C571.084 447.104 570.512 447.36 569.84 447.56C569.168 447.76 568.44 447.86 567.656 447.86C566.104 447.86 564.936 447.46 564.152 446.66C563.368 445.852 562.976 444.78 562.976 443.444V437.036H560.216V434.792H562.976V431.996L566.144 431.612V434.792H570.344L570.02 437.036H566.144V443.432C566.144 444.088 566.304 444.568 566.624 444.872C566.944 445.176 567.46 445.328 568.172 445.328C568.628 445.328 569.044 445.276 569.42 445.172C569.804 445.06 570.152 444.92 570.464 444.752L571.556 446.792ZM585.119 444.152C585.119 444.64 585.191 444.996 585.335 445.22C585.479 445.436 585.711 445.6 586.031 445.712L585.347 447.836C584.667 447.764 584.087 447.596 583.607 447.332C583.135 447.06 582.771 446.656 582.515 446.12C582.035 446.704 581.427 447.14 580.691 447.428C579.963 447.716 579.199 447.86 578.399 447.86C577.103 447.86 576.075 447.492 575.315 446.756C574.555 446.02 574.175 445.064 574.175 443.888C574.175 442.536 574.703 441.496 575.759 440.768C576.823 440.032 578.327 439.664 580.271 439.664H582.047V438.98C582.047 438.228 581.815 437.684 581.351 437.348C580.887 437.004 580.219 436.832 579.347 436.832C578.939 436.832 578.427 436.888 577.811 437C577.203 437.104 576.575 437.268 575.927 437.492L575.171 435.32C575.979 435.016 576.791 434.792 577.607 434.648C578.431 434.504 579.179 434.432 579.851 434.432C581.635 434.432 582.959 434.812 583.823 435.572C584.687 436.324 585.119 437.392 585.119 438.776V444.152ZM579.431 445.568C579.911 445.568 580.395 445.432 580.883 445.16C581.379 444.888 581.767 444.508 582.047 444.02V441.548H580.799C579.623 441.548 578.771 441.736 578.243 442.112C577.723 442.488 577.463 443.02 577.463 443.708C577.463 444.3 577.631 444.76 577.967 445.088C578.303 445.408 578.791 445.568 579.431 445.568ZM595.766 445.316C596.326 445.316 596.85 445.212 597.338 445.004C597.834 444.796 598.31 444.532 598.766 444.212L600.206 446.24C599.646 446.712 598.97 447.1 598.178 447.404C597.386 447.708 596.538 447.86 595.634 447.86C594.306 447.86 593.166 447.584 592.214 447.032C591.27 446.472 590.542 445.696 590.03 444.704C589.526 443.704 589.274 442.544 589.274 441.224C589.274 439.92 589.53 438.756 590.042 437.732C590.562 436.7 591.298 435.892 592.25 435.308C593.21 434.724 594.354 434.432 595.682 434.432C596.594 434.432 597.418 434.564 598.154 434.828C598.898 435.084 599.578 435.468 600.194 435.98L598.79 437.924C598.318 437.596 597.83 437.348 597.326 437.18C596.83 437.004 596.314 436.916 595.778 436.916C594.842 436.916 594.078 437.256 593.486 437.936C592.902 438.608 592.61 439.704 592.61 441.224C592.61 442.224 592.746 443.024 593.018 443.624C593.298 444.224 593.674 444.656 594.146 444.92C594.626 445.184 595.166 445.316 595.766 445.316ZM614.728 446.792C614.256 447.104 613.684 447.36 613.012 447.56C612.34 447.76 611.612 447.86 610.828 447.86C609.276 447.86 608.108 447.46 607.324 446.66C606.54 445.852 606.148 444.78 606.148 443.444V437.036H603.388V434.792H606.148V431.996L609.316 431.612V434.792H613.516L613.192 437.036H609.316V443.432C609.316 444.088 609.476 444.568 609.796 444.872C610.116 445.176 610.632 445.328 611.344 445.328C611.8 445.328 612.216 445.276 612.592 445.172C612.976 445.06 613.324 444.92 613.636 444.752L614.728 446.792ZM622.987 445.52C623.731 445.52 624.327 445.392 624.775 445.136C625.231 444.872 625.459 444.504 625.459 444.032C625.459 443.72 625.383 443.456 625.231 443.24C625.087 443.024 624.799 442.824 624.367 442.64C623.935 442.448 623.287 442.236 622.423 442.004C621.607 441.796 620.891 441.54 620.275 441.236C619.667 440.924 619.191 440.524 618.847 440.036C618.511 439.548 618.343 438.932 618.343 438.188C618.343 437.444 618.551 436.792 618.967 436.232C619.383 435.664 619.983 435.224 620.767 434.912C621.559 434.592 622.511 434.432 623.623 434.432C624.711 434.432 625.663 434.576 626.479 434.864C627.295 435.144 627.995 435.496 628.579 435.92L627.283 437.852C626.771 437.524 626.215 437.26 625.615 437.06C625.023 436.852 624.383 436.748 623.695 436.748C622.951 436.748 622.407 436.856 622.063 437.072C621.727 437.288 621.559 437.588 621.559 437.972C621.559 438.244 621.643 438.476 621.811 438.668C621.987 438.852 622.299 439.032 622.747 439.208C623.203 439.376 623.851 439.58 624.691 439.82C625.515 440.044 626.231 440.308 626.839 440.612C627.455 440.916 627.931 441.32 628.267 441.824C628.603 442.328 628.771 442.988 628.771 443.804C628.771 444.724 628.503 445.484 627.967 446.084C627.431 446.684 626.723 447.132 625.843 447.428C624.971 447.716 624.023 447.86 622.999 447.86C621.799 447.86 620.751 447.688 619.855 447.344C618.959 447 618.199 446.556 617.575 446.012L619.219 444.164C619.715 444.556 620.279 444.88 620.911 445.136C621.551 445.392 622.243 445.52 622.987 445.52ZM657.072 444.152C657.072 444.64 657.144 444.996 657.288 445.22C657.432 445.436 657.664 445.6 657.984 445.712L657.3 447.836C656.62 447.764 656.04 447.596 655.56 447.332C655.088 447.06 654.724 446.656 654.468 446.12C653.988 446.704 653.38 447.14 652.644 447.428C651.916 447.716 651.152 447.86 650.352 447.86C649.056 447.86 648.028 447.492 647.268 446.756C646.508 446.02 646.128 445.064 646.128 443.888C646.128 442.536 646.656 441.496 647.712 440.768C648.776 440.032 650.28 439.664 652.224 439.664H654V438.98C654 438.228 653.768 437.684 653.304 437.348C652.84 437.004 652.172 436.832 651.3 436.832C650.892 436.832 650.38 436.888 649.764 437C649.156 437.104 648.528 437.268 647.88 437.492L647.124 435.32C647.932 435.016 648.744 434.792 649.56 434.648C650.384 434.504 651.132 434.432 651.804 434.432C653.588 434.432 654.912 434.812 655.776 435.572C656.64 436.324 657.072 437.392 657.072 438.776V444.152ZM651.384 445.568C651.864 445.568 652.348 445.432 652.836 445.16C653.332 444.888 653.72 444.508 654 444.02V441.548H652.752C651.576 441.548 650.724 441.736 650.196 442.112C649.676 442.488 649.416 443.02 649.416 443.708C649.416 444.3 649.584 444.76 649.92 445.088C650.256 445.408 650.744 445.568 651.384 445.568ZM661.323 447.5V434.792H664.083L664.311 436.364C664.855 435.724 665.467 435.244 666.147 434.924C666.827 434.596 667.559 434.432 668.343 434.432C669.487 434.432 670.359 434.764 670.959 435.428C671.559 436.084 671.859 437.008 671.859 438.2V447.5H668.691V439.436C668.691 438.796 668.651 438.284 668.571 437.9C668.491 437.508 668.339 437.228 668.115 437.06C667.891 436.884 667.567 436.796 667.143 436.796C666.799 436.796 666.467 436.872 666.147 437.024C665.835 437.176 665.539 437.38 665.259 437.636C664.987 437.892 664.731 438.176 664.491 438.488V447.5H661.323ZM683.081 429.38L686.249 429.716V447.5H683.441L683.249 446C682.857 446.56 682.365 447.012 681.773 447.356C681.181 447.692 680.493 447.86 679.709 447.86C678.637 447.86 677.749 447.58 677.045 447.02C676.349 446.46 675.829 445.676 675.485 444.668C675.149 443.652 674.981 442.472 674.981 441.128C674.981 439.832 675.181 438.68 675.581 437.672C675.981 436.664 676.557 435.872 677.309 435.296C678.069 434.72 678.969 434.432 680.009 434.432C680.633 434.432 681.201 434.54 681.713 434.756C682.225 434.972 682.681 435.292 683.081 435.716V429.38ZM680.861 436.796C680.061 436.796 679.429 437.144 678.965 437.84C678.509 438.528 678.281 439.628 678.281 441.14C678.281 442.204 678.377 443.056 678.569 443.696C678.761 444.328 679.033 444.784 679.385 445.064C679.737 445.344 680.153 445.484 680.633 445.484C681.161 445.484 681.625 445.328 682.025 445.016C682.433 444.696 682.785 444.3 683.081 443.828V438.044C682.785 437.652 682.453 437.348 682.085 437.132C681.725 436.908 681.317 436.796 680.861 436.796ZM711.863 429.38L715.031 429.716V447.5H712.223L712.031 446C711.639 446.56 711.147 447.012 710.555 447.356C709.963 447.692 709.275 447.86 708.491 447.86C707.419 447.86 706.531 447.58 705.827 447.02C705.131 446.46 704.611 445.676 704.267 444.668C703.931 443.652 703.763 442.472 703.763 441.128C703.763 439.832 703.963 438.68 704.363 437.672C704.763 436.664 705.339 435.872 706.09 435.296C706.851 434.72 707.751 434.432 708.791 434.432C709.415 434.432 709.983 434.54 710.495 434.756C711.007 434.972 711.463 435.292 711.863 435.716V429.38ZM709.643 436.796C708.843 436.796 708.211 437.144 707.747 437.84C707.291 438.528 707.063 439.628 707.063 441.14C707.063 442.204 707.159 443.056 707.351 443.696C707.543 444.328 707.815 444.784 708.167 445.064C708.519 445.344 708.935 445.484 709.415 445.484C709.943 445.484 710.407 445.328 710.807 445.016C711.215 444.696 711.567 444.3 711.863 443.828V438.044C711.567 437.652 711.235 437.348 710.867 437.132C710.507 436.908 710.099 436.796 709.643 436.796ZM726.841 443.696H721.381L720.349 447.5H716.953L722.149 430.904H726.181L731.365 447.5H727.873L726.841 443.696ZM721.969 441.236H726.229L724.105 433.364L721.969 441.236ZM739.84 434.432C740.96 434.432 741.856 434.708 742.528 435.26C743.208 435.804 743.7 436.576 744.004 437.576C744.316 438.576 744.472 439.756 744.472 441.116C744.472 442.42 744.284 443.58 743.908 444.596C743.532 445.612 742.98 446.412 742.252 446.996C741.532 447.572 740.644 447.86 739.588 447.86C738.292 447.86 737.244 447.4 736.444 446.48V452.396L733.276 452.732V434.792H736.06L736.228 436.34C736.732 435.684 737.296 435.204 737.92 434.9C738.544 434.588 739.184 434.432 739.84 434.432ZM738.916 436.808C738.38 436.808 737.908 436.968 737.5 437.288C737.1 437.608 736.748 438.004 736.444 438.476V444.164C736.732 444.596 737.06 444.92 737.428 445.136C737.796 445.352 738.212 445.46 738.676 445.46C739.484 445.46 740.1 445.124 740.524 444.452C740.956 443.772 741.172 442.672 741.172 441.152C741.172 440.08 741.084 439.228 740.908 438.596C740.74 437.956 740.488 437.5 740.152 437.228C739.816 436.948 739.404 436.808 738.916 436.808ZM754.23 434.432C755.35 434.432 756.246 434.708 756.918 435.26C757.598 435.804 758.09 436.576 758.394 437.576C758.706 438.576 758.862 439.756 758.862 441.116C758.862 442.42 758.674 443.58 758.298 444.596C757.922 445.612 757.37 446.412 756.642 446.996C755.922 447.572 755.034 447.86 753.978 447.86C752.682 447.86 751.634 447.4 750.834 446.48V452.396L747.666 452.732V434.792H750.45L750.618 436.34C751.122 435.684 751.686 435.204 752.31 434.9C752.934 434.588 753.574 434.432 754.23 434.432ZM753.306 436.808C752.77 436.808 752.298 436.968 751.89 437.288C751.49 437.608 751.138 438.004 750.834 438.476V444.164C751.122 444.596 751.45 444.92 751.818 445.136C752.186 445.352 752.602 445.46 753.066 445.46C753.874 445.46 754.49 445.124 754.914 444.452C755.346 443.772 755.562 442.672 755.562 441.152C755.562 440.08 755.474 439.228 755.298 438.596C755.13 437.956 754.878 437.5 754.542 437.228C754.206 436.948 753.794 436.808 753.306 436.808ZM766.893 445.52C767.637 445.52 768.233 445.392 768.681 445.136C769.137 444.872 769.365 444.504 769.365 444.032C769.365 443.72 769.289 443.456 769.137 443.24C768.993 443.024 768.705 442.824 768.273 442.64C767.841 442.448 767.193 442.236 766.329 442.004C765.513 441.796 764.797 441.54 764.181 441.236C763.573 440.924 763.097 440.524 762.753 440.036C762.417 439.548 762.249 438.932 762.249 438.188C762.249 437.444 762.457 436.792 762.873 436.232C763.289 435.664 763.889 435.224 764.673 434.912C765.465 434.592 766.417 434.432 767.529 434.432C768.617 434.432 769.569 434.576 770.385 434.864C771.201 435.144 771.901 435.496 772.485 435.92L771.189 437.852C770.677 437.524 770.121 437.26 769.521 437.06C768.929 436.852 768.289 436.748 767.601 436.748C766.857 436.748 766.313 436.856 765.969 437.072C765.633 437.288 765.465 437.588 765.465 437.972C765.465 438.244 765.549 438.476 765.717 438.668C765.893 438.852 766.205 439.032 766.653 439.208C767.109 439.376 767.757 439.58 768.597 439.82C769.421 440.044 770.137 440.308 770.745 440.612C771.361 440.916 771.837 441.32 772.173 441.824C772.509 442.328 772.677 442.988 772.677 443.804C772.677 444.724 772.409 445.484 771.873 446.084C771.337 446.684 770.629 447.132 769.749 447.428C768.877 447.716 767.929 447.86 766.905 447.86C765.705 447.86 764.657 447.688 763.761 447.344C762.865 447 762.105 446.556 761.481 446.012L763.125 444.164C763.621 444.556 764.185 444.88 764.817 445.136C765.457 445.392 766.149 445.52 766.893 445.52Z" fill="white"/>
<path d="M1117.3 379.234H1118.55C1118.51 379.693 1118.48 380.141 1118.48 380.578C1118.48 380.995 1118.52 381.578 1118.58 382.328C1118.6 382.391 1118.61 382.516 1118.61 382.703L1117.38 382.875C1117.34 382.625 1117.31 382.432 1117.28 382.297C1117.26 382.151 1117.2 381.948 1117.11 381.688C1117.02 381.417 1116.9 381.208 1116.75 381.062C1116.61 380.906 1116.42 380.771 1116.16 380.656C1115.9 380.531 1115.59 380.469 1115.25 380.469C1114.59 380.469 1114.09 380.625 1113.75 380.938C1113.41 381.25 1113.23 381.599 1113.23 381.984C1113.23 382.245 1113.3 382.464 1113.44 382.641C1113.57 382.807 1113.77 382.938 1114.03 383.031C1114.3 383.115 1114.51 383.172 1114.66 383.203C1114.81 383.234 1115.03 383.266 1115.3 383.297C1116.24 383.411 1116.87 383.531 1117.17 383.656C1117.32 383.719 1117.46 383.792 1117.59 383.875C1118.33 384.344 1118.7 385.021 1118.7 385.906C1118.7 386.708 1118.39 387.385 1117.75 387.938C1117.11 388.479 1116.34 388.75 1115.42 388.75C1115.03 388.75 1114.68 388.698 1114.38 388.594C1114.08 388.49 1113.88 388.385 1113.75 388.281C1113.62 388.177 1113.48 388.036 1113.31 387.859L1113.19 388.797H1111.92C1111.95 388.484 1111.97 388.135 1111.97 387.75C1111.97 386.969 1111.93 386.135 1111.84 385.25H1113.09C1113.23 386.688 1113.94 387.406 1115.22 387.406C1115.76 387.406 1116.24 387.286 1116.66 387.047C1117.08 386.797 1117.3 386.427 1117.3 385.938C1117.3 385.635 1117.2 385.391 1117 385.203C1116.81 385.016 1116.6 384.896 1116.36 384.844C1116.13 384.781 1115.83 384.729 1115.45 384.688C1115.22 384.667 1115.04 384.646 1114.89 384.625C1114.76 384.604 1114.55 384.568 1114.27 384.516C1113.98 384.453 1113.75 384.385 1113.56 384.312C1113.38 384.24 1113.16 384.135 1112.92 384C1112.68 383.865 1112.49 383.714 1112.34 383.547C1112.2 383.37 1112.07 383.151 1111.97 382.891C1111.88 382.63 1111.83 382.339 1111.83 382.016C1111.83 381.214 1112.16 380.531 1112.83 379.969C1113.49 379.406 1114.23 379.125 1115.05 379.125C1115.85 379.125 1116.56 379.453 1117.17 380.109L1117.3 379.234ZM1128.52 385.719L1129.42 386.719C1128.03 388.073 1126.58 388.75 1125.08 388.75C1123.73 388.75 1122.67 388.281 1121.88 387.344C1121.08 386.406 1120.69 385.24 1120.69 383.844C1120.69 382.417 1121.11 381.276 1121.95 380.422C1122.81 379.557 1123.75 379.125 1124.78 379.125C1125.14 379.125 1125.46 379.182 1125.77 379.297C1126.07 379.401 1126.3 379.51 1126.45 379.625C1126.61 379.74 1126.81 379.901 1127.05 380.109L1127.14 379.234H1128.44C1128.39 379.891 1128.36 380.396 1128.36 380.75C1128.36 381.344 1128.41 381.995 1128.52 382.703L1127.22 382.875C1127.18 382.594 1127.14 382.38 1127.11 382.234C1127.08 382.078 1127.01 381.87 1126.91 381.609C1126.8 381.349 1126.68 381.151 1126.53 381.016C1126.4 380.87 1126.19 380.745 1125.92 380.641C1125.66 380.526 1125.35 380.469 1125 380.469C1124.21 380.469 1123.53 380.771 1122.97 381.375C1122.41 381.969 1122.12 382.786 1122.12 383.828C1122.12 384.818 1122.38 385.661 1122.88 386.359C1123.38 387.057 1124.1 387.406 1125.06 387.406C1125.55 387.406 1126.05 387.297 1126.55 387.078C1127.05 386.859 1127.42 386.656 1127.66 386.469C1127.91 386.271 1128.19 386.021 1128.52 385.719ZM1129.8 379.391H1133.97C1134.53 379.391 1134.97 379.422 1135.28 379.484C1135.6 379.536 1135.91 379.661 1136.2 379.859C1136.51 380.068 1136.75 380.365 1136.94 380.75C1137.14 381.135 1137.23 381.536 1137.23 381.953C1137.23 382.068 1137.23 382.177 1137.22 382.281C1137.21 382.385 1137.17 382.557 1137.09 382.797C1137.02 383.026 1136.92 383.234 1136.8 383.422C1136.67 383.599 1136.47 383.786 1136.19 383.984C1135.92 384.182 1135.59 384.339 1135.22 384.453C1135.62 385.016 1136.21 385.938 1136.97 387.219H1138.44V388.5H1136.03C1135.59 387.552 1135.09 386.646 1134.52 385.781C1134.18 385.281 1133.94 384.964 1133.78 384.828C1133.62 384.682 1133.42 384.609 1133.17 384.609H1132.38V387.219H1133.73V388.5H1129.8V387.219H1131.02V380.672H1129.8V379.391ZM1133.97 380.672H1132.38V383.328H1133.53C1134.35 383.328 1134.93 383.219 1135.27 383C1135.62 382.76 1135.8 382.396 1135.8 381.906C1135.8 381.427 1135.65 381.104 1135.34 380.938C1135.05 380.76 1134.59 380.672 1133.97 380.672ZM1140.28 387.375C1139.51 386.448 1139.12 385.307 1139.12 383.953C1139.12 382.599 1139.51 381.458 1140.28 380.531C1141.06 379.594 1142.07 379.125 1143.31 379.125C1144.56 379.125 1145.57 379.589 1146.34 380.516C1147.11 381.443 1147.5 382.583 1147.5 383.938C1147.5 385.292 1147.11 386.432 1146.33 387.359C1145.56 388.286 1144.55 388.75 1143.31 388.75C1142.07 388.75 1141.06 388.292 1140.28 387.375ZM1140.56 383.938C1140.56 384.896 1140.81 385.714 1141.31 386.391C1141.81 387.068 1142.48 387.406 1143.31 387.406C1144.15 387.406 1144.81 387.073 1145.31 386.406C1145.81 385.729 1146.06 384.906 1146.06 383.938C1146.06 383 1145.81 382.188 1145.31 381.5C1144.82 380.812 1144.16 380.469 1143.31 380.469C1142.48 380.469 1141.81 380.812 1141.31 381.5C1140.81 382.177 1140.56 382.99 1140.56 383.938ZM1148.75 379.391H1153.48V380.672H1151.61V387.219H1155.3L1155.5 384.125H1156.83L1156.62 388.5H1148.75V387.219H1150.25V380.672H1148.75V379.391ZM1158.12 379.391H1162.86V380.672H1160.98V387.219H1164.67L1164.88 384.125H1166.2L1166 388.5H1158.12V387.219H1159.62V380.672H1158.12V379.391Z" fill="white"/>
<path d="M1141 406.5C1141 405.395 1140.1 404.5 1139 404.5C1137.9 404.5 1137 405.395 1137 406.5L1141 406.5ZM1137.59 446.914C1138.37 447.695 1139.63 447.695 1140.41 446.914L1153.14 434.186C1153.92 433.405 1153.92 432.139 1153.14 431.358C1152.36 430.577 1151.09 430.577 1150.31 431.358L1139 442.672L1127.69 431.358C1126.91 430.577 1125.64 430.577 1124.86 431.358C1124.08 432.139 1124.08 433.405 1124.86 434.186L1137.59 446.914ZM1137 406.5L1137 445.5L1141 445.5L1141 406.5L1137 406.5Z" fill="white"/>
</g>
<path d="M1289 509H1V511H1289V509Z" fill="white" mask="url(#path-11-inside-5_462_303)"/>
<defs>
<clipPath id="clip0_462_303">
<path d="M1 310H1289V510H1V310Z" fill="white"/>
</clipPath>
</defs>
</svg>
